<svg xmlns="http://www.w3.org/2000/svg" xmlns:xlink="http://www.w3.org/1999/xlink" viewBox="0 0 124 124"><defs><path id="a" d="M.198.163h110.966v122.726H.198z"/><path id="c" d="M0 1.116h26.185V25.19H0z"/></defs><g fill="none" fill-rule="evenodd"><g transform="translate(12.5 .995)"><mask id="b" fill="#fff"><use xlink:href="#a"/></mask><path d="M12.71 95.364c-1.893-2.304-3.878-4.395-5.492-6.737-8.362-12.137-8.99-25.003-3.284-38.339 2.806-6.561 6.569-12.513 11.93-17.353 5.012-4.526 10.975-7.008 17.575-8.127.214-.035.425-.085.925-.188-.474-.495-.805-.866-1.163-1.212-6.89-6.619-13.784-13.234-20.673-19.853-.355-.34-.9-.677-.964-1.078-.108-.67-.144-1.632.245-2.02.383-.385 1.34-.304 2.027-.24.32.03.607.491.898.771 7.728 7.43 15.449 14.868 23.195 22.279.377.36 1.014.765 1.46.697 4.556-.7 9.137-1.316 13.63-2.323 3.42-.767 6.257-2.815 8.842-5.183 3.398-3.114 7.109-5.743 11.667-6.928 7.356-1.915 13.731.076 19.392 4.864 3.425 2.896 6.202 6.345 8.54 10.139 5.607 9.092 9.276 18.852 9.672 29.605.494 13.437-4.859 23.858-16.64 30.73-4.14 2.415-8.403 4.623-12.602 6.941a27.853 27.853 0 00-3.893 2.554c.43.25.93.424 1.278.756 7.382 7.077 14.75 14.17 22.12 21.262.29.28.608.538.864.846.59.712.74 1.618-.01 2.137-.546.38-1.45.343-2.188.308-.311-.014-.607-.49-.897-.768-7.535-7.244-15.066-14.49-22.599-21.734-.256-.246-.523-.478-.948-.864l-5.594 6.683c2.66 2.732 5.342 5.488 8.027 8.244.314.32.653.618.947.954.67.767.659 1.559-.058 2.27-.703.7-1.505.75-2.296.116a8.849 8.849 0 01-.882-.827c-2.746-2.9-5.485-5.803-8.005-8.47-3.03 1.246-5.445 2.428-7.981 3.24-5.122 1.643-10.432 2.23-15.803 2.184-1.038-.01-1.716.27-2.343 1.13-2.406 3.29-4.893 6.522-7.351 9.774-1.161 1.537-1.835 1.659-3.345.56A27991.341 27991.341 0 017.534 105.15c-1.544-1.125-1.612-1.93-.331-3.41 1.869-2.162 3.736-4.326 5.506-6.376m27.394-36.352c.423-.576.692-.923.94-1.283 1.925-2.805 3.849-5.613 5.77-8.42 4.148-6.063 8.284-12.13 12.443-18.182 1.4-2.036 3.426-2.74 5.776-2.23 2.208.478 3.577 1.973 4.097 4.167.361 1.516-.017 2.915-.84 4.22-.89 1.408-1.746 2.834-2.616 4.251l.292.216c.324-.364.635-.738.97-1.09 2.815-2.956 5.624-5.917 8.454-8.856 2.258-2.344 5.464-2.576 7.72-.592 2.266 1.99 2.43 5.176.39 7.69-2.032 2.506-4.071 5.006-6.102 7.514-1.133 1.4-2.255 2.809-3.382 4.214.416-.03.657-.215.89-.406 2.877-2.363 5.712-4.78 8.642-7.077 2.712-2.125 6.548-.843 7.418 2.425.48 1.797-.118 3.32-1.358 4.67-3.88 4.23-7.735 8.481-11.598 12.726-.333.366-.647.75-.969 1.126 2.257-.844 4.283-2 6.43-2.857 1.144-.457 2.536-.685 3.742-.509 1.863.27 3.075 1.606 3.59 3.424.568 1.999-.046 3.688-1.53 5.107-7.133 6.821-14.285 13.62-21.38 20.48-3.327 3.217-7.172 5.737-11.617 6.72-3.285.728-5.183 2.519-6.89 5.043-1.292 1.908-2.773 3.687-4.168 5.523l.16.359c2.785-.311 5.588-.512 8.354-.954 6.755-1.08 12.775-3.458 16.851-9.414 2.607-3.808 6.229-6.47 10.37-8.546 4.206-2.11 8.313-4.422 12.387-6.776 6.269-3.624 10.59-8.898 12.912-15.747 1.931-5.693 2.066-11.539.892-17.35-.889-4.406-1.45-8.883-4.436-12.744-3.062-3.959-6.69-6.796-11.38-8.37-5.393-1.808-10.984-2.05-16.613-2.2-4.599-.12-8.874-1.096-10.519-6.312-.228.163-.384.25-.512.37-3.829 3.54-8.37 5.709-13.48 6.549-5.131.843-10.316 1.366-15.461 2.131-6.206.924-11.86 3.149-16.58 7.403-5.59 5.04-9.36 11.307-11.956 18.248-4.811 12.865-3.267 24.84 5.612 35.596.977 1.184 2.196 2.17 3.35 3.296 3.996-4.612 7.935-9.145 11.844-13.703.256-.3.41-.796.399-1.196-.09-3.399-.232-6.796-.35-10.195-.22-6.306-.472-12.61-.633-18.917-.078-3.107 2.237-5.655 5.245-5.989 2.953-.328 5.642 1.605 6.336 4.626.319 1.39.513 2.81.76 4.217l1.334 7.604m8.187 38.323c-1.09-.425-2.018-.74-2.906-1.142-1.153-.524-1.526-1.4-1.09-2.363.417-.918 1.31-1.056 2.52-.703 1.484.434 3.04.97 4.55.922 4.925-.16 9.214-2.353 12.715-5.514 7.824-7.06 15.333-14.462 22.975-21.72.711-.677 1.186-1.416.541-2.346-.678-.976-1.533-.803-2.487-.322-4.961 2.496-9.947 4.942-14.91 7.437-.795.4-1.506.574-2.225-.069-.822-.735-.747-1.575.24-2.664 6.259-6.913 12.515-13.826 18.784-20.73.621-.687 1.11-1.403.37-2.222-.79-.873-1.524-.315-2.217.258-7.302 6.018-14.61 12.03-21.913 18.049-1.533 1.263-2.328 1.43-3.144.613-.817-.817-.665-1.545.62-3.136C67.36 53.457 74 45.23 80.643 37c1-1.238 1.067-2.418.195-3.216-.906-.83-2.12-.628-3.278.576-3.17 3.298-6.331 6.603-9.495 9.906-3.97 4.144-7.936 8.292-11.911 12.432-.964 1.002-1.927 1.134-2.685.376-.83-.832-.548-1.664.002-2.54 3.658-5.84 7.297-11.692 10.94-17.54.4-.646.854-1.27 1.17-1.956.488-1.054.306-2.017-.7-2.708-.89-.61-2.015-.415-2.768.478-.345.409-.628.872-.93 1.316-6.784 9.949-13.567 19.898-20.343 29.852-.522.767-1.04 1.537-2.124 1.291-.992-.225-1.214-1.03-1.365-1.927-.833-4.93-1.699-9.854-2.57-14.778-.266-1.504-1.36-2.412-2.655-2.266-1.4.157-2.28 1.25-2.232 2.854.296 9.704.62 19.406.866 29.11.019.768-.278 1.707-.76 2.295-2.307 2.802-4.729 5.509-7.109 8.251-4.108 4.738-8.215 9.478-12.398 14.305 7.24 5.239 14.419 10.435 21.644 15.666 5.41-7.184 10.745-14.263 16.154-21.443m50.803-69.988c-2.687-4.626-5.871-8.8-10.3-11.875-6.178-4.29-13.345-4.4-19.68-.358-1.85 1.18-2.095 3.558-.426 5.018.617.54 1.425 1.022 2.216 1.176 1.747.338 3.534.584 5.312.63 8.002.209 15.836 1.049 22.878 5.409" fill="#222E32" mask="url(#b)"/></g><g transform="translate(0 -.56)"><mask id="d" fill="#fff"><use xlink:href="#c"/></mask><path d="M1.413 1.116c.664.386 1.13.561 1.477.87 7.5 6.674 14.989 13.358 22.472 20.05.97.868 1.073 1.775.36 2.558-.723.793-1.63.813-2.606-.052C15.612 17.875 8.108 11.205.656 4.482.198 4.07-.089 3.136.023 2.536c.1-.527.875-.927 1.39-1.42" fill="#222E32" mask="url(#d)"/></g><path d="M9.75 29.437c.631.403 1.144.613 1.497.975 2.714 2.792 5.394 5.616 8.092 8.423.755.784.966 1.626.217 2.494-.692.801-1.839.731-2.72-.182-2.703-2.802-5.408-5.605-8.03-8.481-.397-.436-.595-1.327-.448-1.896.13-.507.865-.86 1.392-1.333M115.21 102.962c-.658-.38-1.165-.581-1.554-.916-2.782-2.394-5.539-4.817-8.307-7.225-.841-.733-1.255-1.547-.47-2.548.684-.875 1.6-.865 2.684.062 2.82 2.417 5.651 4.825 8.392 7.33.448.409.694 1.334.59 1.949-.082.491-.834.872-1.335 1.348" fill="#222E32"/></g></svg>