<svg width="7px" height="11px" viewBox="0 0 7 11" version="1.1" xmlns="http://www.w3.org/2000/svg" xmlns:xlink="http://www.w3.org/1999/xlink">
    <defs></defs>
    <g id="Product-Page" stroke="none" stroke-width="1" fill="none" fill-rule="evenodd">
        <g id="Product-Page---Desktop" transform="translate(-532.000000, -715.000000)" fill="#9B9B9B">
            <g id="Main-Product-Group" transform="translate(20.000000, 251.000000)">
                <g id="Help-Group" transform="translate(223.000000, 366.000000)">
                    <g id="Help" transform="translate(289.000000, 97.000000)">
                        <path d="M2.86044421,8.89357948 L3.62824766,8.89357948 L3.77879735,7.22526914 C5.49506388,6.97811205 6.91023102,6.02037834 6.91023102,4.08946359 L6.91023102,4.05856896 C6.91023102,2.29757471 5.57033873,1 3.53791784,1 C1.9270361,1 0.858133264,1.72602394 0,2.79188888 L0.767803447,3.54880746 C1.53560689,2.6374157 2.39374016,2.09675958 3.5078079,2.09675958 C4.86275516,2.09675958 5.70583346,2.99270402 5.70583346,4.10491091 L5.70583346,4.13580555 C5.70583346,5.43338026 4.66704056,6.26753543 2.70989452,6.31387738 L2.63461967,6.39111397 L2.86044421,8.89357948 Z M2.54428985,11.9521484 L3.92934705,11.9521484 L3.92934705,10.3301801 L2.54428985,10.3301801 L2.54428985,11.9521484 Z" id="Icon"></path>
                    </g>
                </g>
            </g>
        </g>
    </g>
</svg>
