<svg viewBox="0 0 122 122" xmlns="http://www.w3.org/2000/svg" xmlns:xlink="http://www.w3.org/1999/xlink">
  <defs>
    <path id="path-1" d="M0 .452h4.94v13.137H0z"/>
    <path id="path-3" d="M.614 1.268h5.267v12.975H.614z"/>
    <path id="path-5" d="M.058.094h12.97v4.577H.059z"/>
  </defs>
  <g id="Care-&amp;-Cleaning" stroke="none" stroke-width="1" fill="none" fill-rule="evenodd">
    <g id="Desktop-HD" transform="translate(-982 -954)">
      <g id="Icon-Section" transform="translate(297 830)">
        <g id="Care-Icon-Section" transform="translate(0 110)">
          <g transform="translate(685 14)" id="3">
            <path d="M60.833 24.113s-19.02 35.572-19.02 46.122c0 10.549 8.514 19.101 19.02 19.101s19.023-8.552 19.023-19.1c0-10.55-19.023-46.123-19.023-46.123" id="Fill-1" fill="#222E32"/>
            <path d="M3.132 49.871c.16.036.32.055.478.055.984 0 1.872-.682 2.1-1.687a56.565 56.565 0 012.444-8.01 2.166 2.166 0 00-1.225-2.801 2.149 2.149 0 00-2.789 1.228 61.082 61.082 0 00-2.633 8.627 2.164 2.164 0 001.625 2.588" id="Fill-3" fill="#222E32"/>
            <g id="Group-7" transform="translate(0 58.101)">
              <mask id="mask-2" fill="#fff">
                <use xlink:href="#path-1"/>
              </mask>
              <path d="M4.917 11.11a57.696 57.696 0 01-.609-8.362v-.134A2.158 2.158 0 002.155.452 2.16 2.16 0 00-.001 2.614v.134c0 3.013.22 6.038.656 8.993A2.158 2.158 0 003.1 13.565a2.162 2.162 0 001.816-2.456" id="Fill-5" fill="#222E32" mask="url(#mask-2)"/>
            </g>
            <path d="M8.109 81.354a2.15 2.15 0 00-2.787-1.235 2.167 2.167 0 00-1.231 2.798 61.143 61.143 0 003.861 8.15 2.154 2.154 0 001.874 1.094 2.13 2.13 0 001.064-.285 2.167 2.167 0 00.805-2.95 56.686 56.686 0 01-3.586-7.572" id="Fill-8" fill="#222E32"/>
            <path d="M116.417 50.48a2.157 2.157 0 002.51 1.734 2.163 2.163 0 001.727-2.519 61.196 61.196 0 00-2.283-8.727 2.151 2.151 0 00-2.739-1.342 2.167 2.167 0 00-1.336 2.75 56.546 56.546 0 012.121 8.104" id="Fill-10" fill="#222E32"/>
            <path d="M108.938 31.028a2.147 2.147 0 002.965.7 2.169 2.169 0 00.698-2.976 61.722 61.722 0 00-5.278-7.303 2.15 2.15 0 00-3.036-.255 2.17 2.17 0 00-.254 3.049 57.257 57.257 0 014.905 6.785" id="Fill-12" fill="#222E32"/>
            <path d="M18.996 19.476a2.148 2.148 0 00-3.043.135 61.455 61.455 0 00-5.56 7.08 2.167 2.167 0 00.578 3.003c.37.25.788.372 1.203.372.691 0 1.371-.335 1.787-.953a57.301 57.301 0 015.17-6.581 2.17 2.17 0 00-.135-3.056" id="Fill-14" fill="#222E32"/>
            <path d="M46.967 5.743a2.2 2.2 0 00.509-.06 56.22 56.22 0 018.235-1.365 2.162 2.162 0 001.953-2.348 2.152 2.152 0 00-2.34-1.96 60.502 60.502 0 00-8.862 1.467 2.165 2.165 0 00.505 4.266" id="Fill-16" fill="#222E32"/>
            <path d="M68.22 4.569c2.756.361 5.506.93 8.17 1.697a2.156 2.156 0 002.664-1.487 2.165 2.165 0 00-1.479-2.673A60.56 60.56 0 0068.777.279a2.156 2.156 0 00-2.415 1.866 2.162 2.162 0 001.858 2.424" id="Fill-18" fill="#222E32"/>
            <path d="M115.577 82.22a2.15 2.15 0 00-2.832 1.127 56.99 56.99 0 01-3.867 7.422 2.167 2.167 0 00.692 2.979 2.15 2.15 0 002.967-.694 61.337 61.337 0 004.163-7.99 2.168 2.168 0 00-1.123-2.844" id="Fill-20" fill="#222E32"/>
            <path d="M96.258 16.035c.651 0 1.294-.294 1.718-.856a2.168 2.168 0 00-.415-3.03 60.88 60.88 0 00-7.535-4.906 2.15 2.15 0 00-2.924.858 2.169 2.169 0 00.854 2.936 56.896 56.896 0 017.003 4.559c.39.296.846.439 1.3.439" id="Fill-22" fill="#222E32"/>
            <path d="M101.144 100.64a57.107 57.107 0 01-6.275 5.531 2.17 2.17 0 00-.421 3.03 2.151 2.151 0 003.019.422 61.563 61.563 0 006.749-5.95 2.17 2.17 0 00-.025-3.06 2.15 2.15 0 00-3.047.027" id="Fill-24" fill="#222E32"/>
            <path d="M25.119 104.847a57.201 57.201 0 01-6.064-5.763 2.147 2.147 0 00-3.043-.14 2.17 2.17 0 00-.14 3.056 61.683 61.683 0 006.522 6.2 2.146 2.146 0 003.031-.309 2.17 2.17 0 00-.306-3.044" id="Fill-26" fill="#222E32"/>
            <path d="M84.116 112.587a56.31 56.31 0 01-7.843 2.88 2.164 2.164 0 00.585 4.245c.196 0 .394-.027.59-.083a60.565 60.565 0 008.443-3.1 2.167 2.167 0 001.075-2.863 2.15 2.15 0 00-2.85-1.079" id="Fill-28" fill="#222E32"/>
            <g id="Group-32" transform="translate(115.744 59.658)">
              <mask id="mask-4" fill="#fff">
                <use xlink:href="#path-3"/>
              </mask>
              <path d="M3.807 1.27c-1.202-.054-2.19.888-2.233 2.082a57.297 57.297 0 01-.923 8.33 2.164 2.164 0 002.12 2.56 2.159 2.159 0 002.116-1.766c.547-2.943.882-5.959.993-8.964A2.16 2.16 0 003.807 1.27" id="Fill-30" fill="#222E32" mask="url(#mask-4)"/>
            </g>
            <path d="M36.696 7.082a2.149 2.149 0 00-2.887-.975 60.913 60.913 0 00-7.731 4.6 2.168 2.168 0 00-.535 3.012 2.152 2.152 0 003 .537 56.568 56.568 0 017.182-4.275c1.067-.531 1.5-1.83.971-2.9" id="Fill-33" fill="#222E32"/>
            <g id="Group-37" transform="translate(53.18 117.266)">
              <mask id="mask-6" fill="#fff">
                <use xlink:href="#path-5"/>
              </mask>
              <path d="M10.759.26a57.154 57.154 0 01-8.35-.157A2.17 2.17 0 00.068 2.06a2.161 2.161 0 001.949 2.351 62.22 62.22 0 005.637.26c1.106 0 2.229-.031 3.337-.09a2.16 2.16 0 002.035-2.277A2.167 2.167 0 0010.76.26" id="Fill-35" fill="#222E32" mask="url(#mask-6)"/>
            </g>
            <path d="M43.341 114.84a56.35 56.35 0 01-7.723-3.175 2.149 2.149 0 00-2.889.968 2.166 2.166 0 00.965 2.9 60.407 60.407 0 008.315 3.421c.222.074.446.108.668.108a2.166 2.166 0 00.665-4.22" id="Fill-38" fill="#222E32"/>
          </g>
        </g>
      </g>
    </g>
  </g>
</svg>
