<svg xmlns="http://www.w3.org/2000/svg" xmlns:xlink="http://www.w3.org/1999/xlink" viewBox="0 0 116 146"><defs><path id="a" d="M.606.056H86.16v85.027H.606z"/><path id="c" d="M.701 1.013h3.85V25.57H.701z"/><path id="e" d="M.701.368h3.85v24.558H.701z"/><path id="g" d="M0 .151h24.71v3.826H0z"/></defs><g fill="none" fill-rule="evenodd"><g transform="translate(29.784 30.704)"><mask id="b" fill="#fff"><use xlink:href="#a"/></mask><path d="M43.383.056C19.796.056.606 19.128.606 42.569c0 23.442 19.19 42.514 42.777 42.514S86.16 66.01 86.16 42.569C86.16 19.128 66.97.056 43.383.056M4.455 42.569c0-21.332 17.463-38.687 38.928-38.687v77.375c-21.465 0-38.928-17.355-38.928-38.688" fill="#222E32" mask="url(#b)"/></g><g transform="translate(70.54 -.454)"><mask id="d" fill="#fff"><use xlink:href="#c"/></mask><path d="M2.626 25.57a1.92 1.92 0 001.925-1.913V2.924a1.92 1.92 0 00-1.925-1.913A1.92 1.92 0 00.701 2.924v20.733a1.92 1.92 0 001.925 1.913" fill="#222E32" mask="url(#d)"/></g><g transform="translate(70.54 121.062)"><mask id="f" fill="#fff"><use xlink:href="#e"/></mask><path d="M2.626.368A1.92 1.92 0 00.701 2.282v20.732a1.92 1.92 0 001.925 1.913 1.92 1.92 0 001.925-1.913V2.282A1.92 1.92 0 002.626.368" fill="#222E32" mask="url(#f)"/></g><g transform="translate(0 71.209)"><mask id="h" fill="#fff"><use xlink:href="#g"/></mask><path d="M24.71 2.064A1.92 1.92 0 0022.787.151H1.924A1.92 1.92 0 000 2.064a1.92 1.92 0 001.925 1.913h20.862a1.92 1.92 0 001.925-1.913" fill="#222E32" mask="url(#h)"/></g><path d="M36.18 39.22c.377.375.87.561 1.362.561.492 0 .986-.186 1.36-.56a1.902 1.902 0 000-2.705l-14.75-14.66a1.93 1.93 0 00-2.722 0 1.902 1.902 0 000 2.705l14.75 14.66zM36.18 107.325l-14.75 14.66a1.907 1.907 0 000 2.706c.376.374.868.56 1.362.56.492 0 .984-.186 1.36-.56l14.751-14.661c.751-.747.751-1.959 0-2.705a1.933 1.933 0 00-2.722 0M55.292 118.034a1.927 1.927 0 00-2.499 1.072l-7.697 19.27a1.91 1.91 0 001.08 2.484 1.926 1.926 0 002.499-1.073l7.695-19.27a1.91 1.91 0 00-1.078-2.483M6.24 48.933l19.389 7.647a1.927 1.927 0 002.5-1.072 1.912 1.912 0 00-1.08-2.484l-19.39-7.648a1.929 1.929 0 00-2.498 1.072 1.91 1.91 0 001.078 2.485M51.429 28.063a1.926 1.926 0 002.53.998 1.908 1.908 0 001.005-2.514l-8.27-19.035a1.931 1.931 0 00-2.53-.998 1.908 1.908 0 00-1.004 2.514l8.269 19.035zM28.68 92.362a1.93 1.93 0 00-2.53-.998L6.997 99.58a1.91 1.91 0 00-1.003 2.516 1.923 1.923 0 002.53.997l19.151-8.217a1.908 1.908 0 001.005-2.515" fill="#222E32"/></g></svg>