<svg width="19px" height="19px" viewBox="0 0 19 19" version="1.1" xmlns="http://www.w3.org/2000/svg" xmlns:xlink="http://www.w3.org/1999/xlink">
    <!-- Generator: Sketch 49.3 (51167) - http://www.bohemiancoding.com/sketch -->
    <desc>Created with Sketch.</desc>
    <defs></defs>
    <g id="Homepage" stroke="none" stroke-width="1" fill="none" fill-rule="evenodd">
        <g id="Mobile---Homepage" transform="translate(-85.000000, -3001.000000)" fill="#F6F6F6">
            <g id="Footer" transform="translate(0.000000, 2973.000000)">
                <g id="Social-Media" transform="translate(30.000000, 28.000000)">
                    <path d="M65.1485156,19 L56.0486541,19 C55.4693288,19 55,18.53038 55,17.9512803 L55,1.04864601 C55,0.469398841 55.4694025,0 56.0486541,0 L72.9514196,0 C73.5305238,0 74,0.469398841 74,1.04864601 L74,17.9512803 C74,18.5304537 73.5304501,19 72.9514196,19 L68.109725,19 L68.109725,11.6421529 L70.5794146,11.6421529 L70.9492156,8.77466931 L68.109725,8.77466931 L68.109725,6.94396222 C68.109725,6.11375956 68.3402608,5.54800383 69.5307605,5.54800383 L71.0491857,5.54734032 L71.0491857,2.98264001 C70.7865799,2.94769497 69.8852268,2.86962156 68.8365727,2.86962156 C66.6473302,2.86962156 65.1485156,4.20593747 65.1485156,6.6599785 L65.1485156,8.77466931 L62.6724857,8.77466931 L62.6724857,11.6421529 L65.1485156,11.6421529 L65.1485156,19 L65.1485156,19 Z" id="Facebook"></path>
                </g>
            </g>
        </g>
    </g>
</svg>