<svg height="19px" width="19px" viewBox="0 0 19 19" xmlns:xlink="http://www.w3.org/1999/xlink"><defs><path id="prefix__askdjf" d="M0 .006h18.994V19H0z"/></defs><g fill="none" fill-rule="evenodd"><g><mask id="prefix__b" fill="#fff"><use xlink:href="#prefix__askdjf"/></mask><path d="M9.497.006c-2.58 0-2.903.01-3.915.057C4.57.11 3.88.27 3.276.505A4.656 4.656 0 001.594 1.6 4.655 4.655 0 00.498 3.282c-.234.604-.395 1.295-.44 2.305C.01 6.6 0 6.924 0 9.503c0 2.58.01 2.903.057 3.916.046 1.01.207 1.7.442 2.305a4.655 4.655 0 001.095 1.682 4.656 4.656 0 001.682 1.095c.604.235 1.295.396 2.306.442 1.013.046 1.336.057 3.915.057 2.58 0 2.903-.01 3.916-.057 1.01-.046 1.701-.207 2.305-.442a4.856 4.856 0 002.778-2.777c.234-.604.395-1.295.441-2.305.046-1.013.057-1.337.057-3.916 0-2.58-.01-2.903-.057-3.916-.046-1.01-.207-1.7-.441-2.305A4.655 4.655 0 0017.4 1.6 4.655 4.655 0 0015.718.504C15.114.27 14.423.11 13.413.064 12.4.016 12.076.005 9.497.005zm0 1.711c2.536 0 2.836.01 3.838.056.926.042 1.428.197 1.763.327.413.152.786.395 1.092.71.316.306.558.68.71 1.092.13.335.285.837.328 1.763.045 1.002.055 1.302.055 3.838s-.01 2.836-.055 3.838c-.043.926-.197 1.429-.327 1.763a3.145 3.145 0 01-1.803 1.803c-.334.13-.837.284-1.763.327-1.002.045-1.302.055-3.838.055s-2.836-.01-3.838-.055c-.926-.043-1.428-.197-1.763-.327a2.942 2.942 0 01-1.092-.71 2.942 2.942 0 01-.71-1.093c-.13-.334-.285-.837-.328-1.763-.045-1.002-.055-1.302-.055-3.838s.01-2.836.055-3.838c.043-.926.197-1.428.327-1.763.153-.413.396-.786.711-1.092.306-.315.68-.558 1.092-.71.335-.13.837-.285 1.763-.327 1.002-.046 1.302-.056 3.838-.056z" fill="#F6F6F6" mask="url(#prefix__b)"/></g><path d="M9.5 13.07a3.57 3.57 0 110-7.14 3.57 3.57 0 010 7.14M9.5 4a5.5 5.5 0 100 11 5.5 5.5 0 000-11M15 3a1 1 0 110 2 1 1 0 010-2" fill="#F6F6F6"/></g></svg>