<svg width="19px" height="19px" viewBox="0 0 19 19" version="1.1" xmlns="http://www.w3.org/2000/svg" xmlns:xlink="http://www.w3.org/1999/xlink">
    <!-- Generator: Sketch 49.3 (51167) - http://www.bohemiancoding.com/sketch -->
    <desc>Created with Sketch.</desc>
    <defs></defs>
    <g id="Homepage" stroke="none" stroke-width="1" fill="none" fill-rule="evenodd">
        <g id="Mobile---Homepage" transform="translate(-191.000000, -3001.000000)" fill="#F6F6F6">
            <g id="Footer" transform="translate(0.000000, 2973.000000)">
                <g id="Social-Media" transform="translate(30.000000, 28.000000)">
                    <path d="M170.500559,0 C165.254248,0 161,4.25313106 161,9.50055859 C161,13.3894867 163.33939,16.7321103 166.687599,18.2012113 C166.660787,17.5387194 166.68313,16.7410478 166.851826,16.019345 C167.035044,15.2484859 168.074028,10.8434174 168.074028,10.8434174 C168.074028,10.8434174 167.771271,10.2367849 167.771271,9.33968366 C167.771271,7.93202799 168.587934,6.88075498 169.603457,6.88075498 C170.467043,6.88075498 170.884871,7.52984065 170.884871,8.30740283 C170.884871,9.17545716 170.330746,10.4747457 170.045863,11.6779561 C169.807903,12.686776 170.550832,13.5079085 171.545128,13.5079085 C173.344917,13.5079085 174.557065,11.1964485 174.557065,8.4571059 C174.557065,6.37578644 173.154995,4.81731052 170.604457,4.81731052 C167.723232,4.81731052 165.927912,6.9656612 165.927912,9.36537896 C165.927912,10.1943317 166.171459,10.7775034 166.553537,11.2288469 C166.730052,11.4377609 166.753513,11.5204328 166.689834,11.7595108 C166.645146,11.9326748 166.540131,12.3549715 166.49656,12.5214324 C166.432881,12.7616276 166.23849,12.8487682 166.021756,12.7593932 C164.69342,12.2175575 164.075616,10.7640971 164.075616,9.1296525 C164.075616,6.43164579 166.351326,3.19403775 170.864762,3.19403775 C174.492268,3.19403775 176.879697,5.82054448 176.879697,8.63697301 C176.879697,12.363909 174.808432,15.1479391 171.752925,15.1479391 C170.728465,15.1479391 169.763215,14.5938143 169.432528,13.964838 C169.432528,13.964838 168.880637,16.1534074 168.76445,16.5757041 C168.563356,17.3074616 168.168989,18.0403363 167.808138,18.6101017 C168.662786,18.862586 169.565473,19 170.500559,19 C175.746869,19 180,14.7468689 180,9.50055859 C180,4.25313106 175.746869,0 170.500559,0" id="Pinterest"></path>
                </g>
            </g>
        </g>
    </g>
</svg>