<svg width="19px" height="16px" viewBox="0 0 19 16" version="1.1" xmlns="http://www.w3.org/2000/svg" xmlns:xlink="http://www.w3.org/1999/xlink">
    <!-- Generator: Sketch 49.3 (51167) - http://www.bohemiancoding.com/sketch -->
    <desc>Created with Sketch.</desc>
    <defs></defs>
    <g id="Homepage" stroke="none" stroke-width="1" fill="none" fill-rule="evenodd">
        <g id="Mobile---Homepage" transform="translate(-138.000000, -3002.000000)" fill="#F6F6F6">
            <g id="Footer" transform="translate(0.000000, 2973.000000)">
                <g id="Social-Media" transform="translate(30.000000, 28.000000)">
                    <path d="M124.761754,3.52972192 C125.566943,3.03048032 126.184774,2.23885879 126.475847,1.29584688 C125.721958,1.75810762 124.888889,2.09440231 123.998943,2.274684 C123.289664,1.48999639 122.275929,1 121.154018,1 C119.002759,1 117.25744,2.80859516 117.25744,5.03900325 C117.25744,5.35565186 117.290896,5.66305525 117.357809,5.95890213 C114.118096,5.79017696 111.246405,4.18382087 109.322651,1.73730589 C108.98697,2.33593355 108.795152,3.03048032 108.795152,3.77009751 C108.795152,5.17074756 109.483242,6.40729505 110.529319,7.13188877 C109.891413,7.11224269 109.289194,6.92849404 108.76281,6.62802456 L108.76281,6.67771759 C108.76281,8.63539184 110.10665,10.2683279 111.891002,10.6381365 C111.564243,10.7329 111.21964,10.7802817 110.863884,10.7802817 C110.61296,10.7802817 110.367612,10.756013 110.13007,10.7086313 C110.626343,12.3126761 112.064976,13.4810401 113.771263,13.5122427 C112.43746,14.5962441 110.755708,15.2422535 108.930093,15.2422535 C108.615601,15.2422535 108.304455,15.2237631 108,15.1867822 C109.725245,16.3308776 111.775019,17 113.975348,17 C121.146211,17 125.066209,10.8461538 125.066209,5.50819791 C125.066209,5.33253882 125.062863,5.15687974 125.056172,4.98468761 C125.817867,4.41495125 126.479192,3.70422535 127,2.8941134 C126.301872,3.21538462 125.550214,3.43264717 124.761754,3.52972192 Z" id="Twitter"></path>
                </g>
            </g>
        </g>
    </g>
</svg>