<?xml version="1.0" encoding="UTF-8"?>
<svg width="60px" height="61px" viewBox="0 0 60 61" version="1.1" xmlns="http://www.w3.org/2000/svg" xmlns:xlink="http://www.w3.org/1999/xlink">
    <!-- Generator: Sketch 46.2 (44496) - http://www.bohemiancoding.com/sketch -->
    <title>aniline_icon</title>
    <desc>Created with Sketch.</desc>
    <defs>
        <polygon id="path-1" points="9.0477905e-05 0.404149646 59.7002942 0.404149646 59.7002942 60.2051832 9.0477905e-05 60.2051832 9.0477905e-05 0.404149646"></polygon>
    </defs>
    <g id="Pages" stroke="none" stroke-width="1" fill="none" fill-rule="evenodd">
        <g id="Desktop-HD" transform="translate(-530.000000, -1109.000000)">
            <g id="Feature-Group" transform="translate(349.000000, 1106.000000)">
                <g id="lead-time" transform="translate(160.000000, 3.000000)">
                    <g id="aniline_icon" transform="translate(21.000000, 0.000000)">
                        <g id="Group-3" transform="translate(0.000000, 0.191941)">
                            <mask id="mask-2" fill="white">
                                <use xlink:href="#path-1"></use>
                            </mask>
                            <g id="Clip-2"></g>
                            <path d="M31.682769,4.14450097 L31.682769,9.54627692 C31.682769,10.6228171 31.6988635,11.6993573 31.6768081,12.7753014 C31.6547528,13.8470729 30.8726815,14.6202029 29.8515777,14.6249716 C28.8650473,14.6297403 28.0346926,13.8941641 28.0287317,12.8724643 C28.0054841,8.84348572 28.023963,4.81510326 28.0299239,0.786124709 C28.0299239,0.737245254 28.0680737,0.688365798 28.1062235,0.404030428 C30.3737534,0.580473341 32.6889705,0.520864249 34.8992757,0.97389335 C47.200208,3.49356968 55.3410217,10.7801851 58.6660169,22.8993097 C63.1223926,39.1487482 52.7277591,55.9179781 36.2786301,59.5082337 C19.9904456,63.0639161 3.86797439,52.6668982 0.642526406,36.2869157 C-1.37524137,26.0424971 1.38108306,17.0254297 8.61464641,9.43480791 C9.48374698,8.5227888 10.5227335,8.45423834 11.3155344,9.20829336 C12.1220454,9.97546238 12.0886643,11.041869 11.1784335,11.9795201 C7.50770557,15.7581404 5.14360897,20.2103435 4.14575276,25.3939502 C1.57302434,38.7577126 9.7513918,51.9152275 22.9029458,55.5418447 C37.4785611,59.5612858 52.4410394,50.3630068 55.5055428,35.4994796 C58.4782482,21.0758675 48.7905785,6.92407294 34.2829177,4.50573207 C33.4519669,4.36743898 32.6126709,4.27266052 31.682769,4.14450097" id="Fill-1" fill="#9B9B9B" mask="url(#mask-2)"></path>
                        </g>
                        <path d="M15.3752712,16.1619324 C19.1103769,18.7447944 22.8627693,21.3026205 26.5740314,23.9176714 C29.3661213,25.8853676 32.1361558,27.8864448 34.8567148,29.9507076 C36.3129649,31.0558602 36.7498995,33.0235564 36.1001604,34.6556533 C35.4373073,36.3199392 33.7825589,37.4221113 32.0151493,37.3321015 C30.7025571,37.2653394 29.6194599,36.6954764 28.8499065,35.6290698 C26.0625854,31.7640162 23.2770525,27.8971744 20.5249007,24.006489 C18.7288788,21.4683338 16.993062,18.8878562 15.2310172,16.3258574 C15.2787045,16.2716131 15.3269879,16.2167728 15.3752712,16.1619324" id="Fill-4" fill="#9B9B9B"></path>
                    </g>
                </g>
            </g>
        </g>
    </g>
</svg>