<?xml version="1.0" encoding="UTF-8"?>
<svg width="75px" height="55px" viewBox="0 0 75 55" version="1.1" xmlns="http://www.w3.org/2000/svg" xmlns:xlink="http://www.w3.org/1999/xlink">
    <!-- Generator: Sketch 43.2 (39069) - http://www.bohemiancoding.com/sketch -->
    <title>Page 1</title>
    <desc>Created with Sketch.</desc>
    <defs></defs>
    <g id="Pages" stroke="none" stroke-width="1" fill="none" fill-rule="evenodd">
        <g id="Desktop-HD" transform="translate(-1090.000000, -1114.000000)" fill="#9B9B9B">
            <g id="Page-1" transform="translate(1090.000000, 1113.000000)">
                <g id="Group-3" transform="translate(0.000000, 0.729400)">
                    <path d="M0.895,5.6344 C1.012,6.0784 1.126,6.5174 1.197,6.7854 C1.542,6.6914 1.91,6.5904 2.179,6.5164 C2.298,5.9854 2.435,5.3814 2.564,4.8084 C2.466,4.8354 2.256,4.8924 2.049,4.9484 C1.918,4.7494 1.8,4.5704 1.737,4.4724 C1.42,4.9084 1.127,5.3144 0.895,5.6344 M0.815,15.8204 C1.678,15.8754 0.967,16.6304 1.095,16.8914 C1.583,16.7774 1.955,16.6894 2.161,16.6414 C2.305,16.0194 2.446,15.4164 2.577,14.8524 C2.477,14.8804 2.266,14.9394 2.046,14.9994 C1.941,14.7704 1.849,14.5684 1.794,14.4494 C1.474,14.8984 1.165,15.3304 0.815,15.8204 M2.237,11.8164 C2.348,11.1374 2.451,10.5104 2.552,9.8854 C2.482,9.9004 2.279,9.9424 2.012,9.9974 C1.917,9.7844 1.826,9.5824 1.789,9.4974 C1.499,9.9384 1.192,10.4044 0.904,10.8424 C1.017,11.1794 1.164,11.6164 1.301,12.0244 C1.386,11.9284 1.55,11.7464 1.716,11.5614 C1.95,11.6764 2.147,11.7724 2.237,11.8164 M2.543,20.0284 C2.44,20.0514 2.232,20.0984 2.035,20.1424 C1.914,19.8824 1.814,19.6684 1.749,19.5274 C1.402,19.9954 1.071,20.4424 0.693,20.9504 C1.518,21.0334 1.158,21.7054 1.167,22.3024 C1.381,22.0294 1.535,21.8344 1.703,21.6184 C1.938,21.7214 2.158,21.8174 2.23,21.8494 C2.333,21.2504 2.435,20.6554 2.543,20.0284 M1.291,27.3274 C1.378,27.2144 1.546,26.9954 1.725,26.7614 C1.991,26.8664 2.232,26.9624 2.344,27.0064 C2.464,26.3694 2.576,25.7774 2.681,25.2174 C2.581,25.2374 2.373,25.2804 2.145,25.3264 C2.046,25.0564 1.964,24.8304 1.906,24.6674 C1.546,25.1524 1.2,25.6204 0.939,25.9724 C1.058,26.4284 1.176,26.8844 1.291,27.3274 M3.888,23.3994 C4.085,23.4804 4.277,23.5584 4.469,23.6374 C3.836,22.7484 4.912,22.4224 5.067,21.7744 C4.737,21.8354 4.468,21.8844 4.212,21.9314 C4.089,21.6524 3.985,21.4144 3.93,21.2894 C3.564,21.7474 3.205,22.1964 2.819,22.6784 C2.923,22.7604 3.137,22.9274 3.324,23.0734 C3.282,23.3954 3.246,23.6614 3.186,24.1144 C3.511,23.7834 3.701,23.5914 3.888,23.3994 M4.468,13.6164 C4.628,12.9434 4.773,12.3384 4.912,11.7554 C4.738,11.7864 4.468,11.8344 4.208,11.8814 C4.089,11.6024 3.987,11.3604 3.931,11.2304 C3.569,11.6894 3.211,12.1414 2.828,12.6274 C2.909,12.6934 3.119,12.8644 3.316,13.0254 C3.277,13.3344 3.242,13.6124 3.185,14.0644 C3.53,13.7174 3.721,13.5254 3.902,13.3434 C4.173,13.4744 4.398,13.5824 4.468,13.6164 M10.933,8.0314 C11.053,8.4584 11.196,8.9634 11.298,9.3264 C11.704,9.2974 12.237,9.2584 12.742,9.2214 C12.444,8.7344 12.548,8.1524 13.395,7.6224 C12.87,7.6404 12.573,7.6514 12.259,7.6614 C12.132,7.3944 12.014,7.1454 11.955,7.0204 C11.591,7.3804 11.228,7.7394 10.933,8.0314 M30.087,13.6854 C29.654,13.1834 29.269,12.7384 29.011,12.4414 C28.639,12.6964 28.241,12.9684 27.831,13.2494 C28.553,13.5314 28.378,14.1814 28.21,14.8824 C28.809,14.2474 29.302,14.5554 29.888,15.1034 C29.774,14.6134 29.707,14.3254 29.639,14.0324 C29.839,13.8774 30.014,13.7414 30.087,13.6854 M7.268,13.5844 C7.074,13.6154 6.797,13.6604 6.495,13.7104 C6.393,13.4404 6.298,13.1904 6.241,13.0384 C5.867,13.4634 5.498,13.8844 5.118,14.3164 C5.884,14.4744 5.542,15.1664 5.521,15.6134 C5.984,15.5124 6.41,15.4194 6.7,15.3554 C6.881,14.7894 7.071,14.1994 7.268,13.5844 M10.791,3.0624 C11.534,3.2014 11.128,3.9284 11.133,4.6084 C11.613,3.7474 12.177,4.0444 12.781,4.3794 C12.348,3.6614 12.542,3.1154 13.279,2.5864 C12.775,2.5984 12.478,2.6054 12.133,2.6134 C12.017,2.3254 11.91,2.0604 11.891,2.0144 C11.525,2.3634 11.16,2.7114 10.791,3.0624 M8.99,20.1584 C8.514,20.5734 8.077,20.9544 7.659,21.3194 C7.811,21.4374 8.05,21.6224 8.268,21.7924 C8.192,22.1364 8.128,22.4224 8.028,22.8744 C8.421,22.5504 8.674,22.3414 8.923,22.1364 C9.173,22.2654 9.386,22.3764 9.474,22.4224 C9.664,21.8324 9.84,21.2804 10.004,20.7694 C9.832,20.7724 9.528,20.7784 9.226,20.7834 C9.122,20.5074 9.034,20.2754 8.99,20.1584 M27.707,2.9424 L27.554,3.1064 C28.379,3.4524 28.339,4.0484 28.17,4.5044 C28.687,4.5704 29.197,4.6364 29.517,4.6774 C29.681,4.2404 29.852,3.7854 30.026,3.3224 C29.15,3.4784 29.167,2.5934 28.82,2.0004 C28.676,2.3794 28.568,2.6654 28.452,2.9724 C28.185,2.9624 27.946,2.9524 27.707,2.9424 M5.273,16.7384 C4.826,16.8224 4.542,16.8754 4.275,16.9264 C4.136,16.6104 4.023,16.3544 3.958,16.2074 C3.557,16.7304 3.172,17.2334 2.782,17.7414 C3.369,17.9454 3.275,18.5064 2.977,19.3144 C3.358,18.9244 3.567,18.7114 3.804,18.4684 C4.049,18.5704 4.294,18.6714 4.742,18.8564 C4.092,17.8894 4.708,17.3814 5.273,16.7384 M27.781,7.9764 C27.708,8.0244 27.637,8.0724 27.565,8.1214 C28.524,8.4684 28.327,9.1474 28.05,10.0684 C28.773,9.1934 29.261,9.5234 29.848,10.0924 C29.728,9.6084 29.658,9.3214 29.581,9.0084 C29.776,8.8464 29.964,8.6914 30.024,8.6414 C29.589,8.1314 29.193,7.6644 28.806,7.2094 C28.71,7.4444 28.594,7.7274 28.476,8.0154 C28.218,8.0014 27.999,7.9884 27.781,7.9764 M10.985,19.8614 C11.457,19.5094 11.696,19.3294 11.921,19.1614 C12.202,19.2984 12.447,19.4184 12.903,19.6414 C12.318,18.7884 12.671,18.2734 13.21,17.7584 C12.278,18.1504 12.028,17.5004 11.817,16.9754 C11.48,17.4114 11.162,17.8234 10.835,18.2464 C11.407,18.4714 11.34,19.0294 10.985,19.8614 M29.551,19.1614 C29.813,18.9494 30.024,18.7804 30.398,18.4784 C29.306,18.6634 29.155,17.8844 28.797,17.0774 C28.666,17.9524 28.407,18.3784 27.891,18.1944 C28.025,18.7544 28.165,19.3364 28.294,19.8774 C28.717,19.3934 29.229,19.6194 29.833,20.3054 C29.703,19.7764 29.631,19.4884 29.551,19.1614 M7.782,16.3164 C8.421,16.4874 8.361,17.1034 8.205,17.5554 C8.708,17.5314 9.202,17.5084 9.702,17.4844 C9.319,16.8454 9.713,16.3064 10.402,15.7354 C9.922,15.7644 9.624,15.7834 9.291,15.8034 C9.18,15.4994 9.079,15.2204 9.023,15.0684 C8.599,15.4944 8.173,15.9234 7.782,16.3164 M11.888,11.9544 C11.693,12.7654 11.192,13.1304 10.31,13.1204 C10.657,13.3784 10.88,13.5454 11.112,13.7174 C11.046,14.0554 10.986,14.3674 10.883,14.8934 C11.527,14.1734 12.098,13.9664 12.867,14.5314 C12.249,13.7334 12.79,13.2864 13.34,12.7564 C12.885,12.7814 12.586,12.7974 12.281,12.8144 C12.138,12.5014 12.013,12.2284 11.888,11.9544 M24.893,12.9634 C24.019,12.9894 23.557,12.5444 23.429,11.4964 C23.201,12.0344 23.091,12.2924 22.987,12.5384 C22.638,12.5754 22.322,12.6094 21.807,12.6644 C22.603,13.1074 22.866,13.6004 22.403,14.4444 C22.866,14.1854 23.153,14.0254 23.464,13.8504 C23.736,14.0404 24.002,14.2264 24.386,14.4944 C24.244,14.0854 24.152,13.8234 24.062,13.5704 C24.356,13.3554 24.624,13.1594 24.893,12.9634 M30.047,23.9284 C29.585,23.4114 29.201,22.9804 28.82,22.5524 C28.725,22.7774 28.617,23.0344 28.504,23.3024 C28.201,23.3014 27.92,23.3014 27.503,23.3014 C28.253,23.7604 28.478,24.3214 28.244,25.1714 C28.448,24.9784 28.652,24.7864 28.819,24.6284 C29.218,24.9604 29.486,25.1834 29.877,25.5094 C29.747,24.9854 29.661,24.6374 29.579,24.3114 C29.811,24.1224 30.001,23.9664 30.047,23.9284 M4.972,6.5894 C4.708,6.6424 4.446,6.6964 4.196,6.7474 C4.059,6.4264 3.948,6.1644 3.877,5.9994 C3.466,6.5344 3.083,7.0354 2.669,7.5734 C2.758,7.6424 2.972,7.8074 3.148,7.9424 C3.111,8.2764 3.082,8.5414 3.033,8.9834 C3.348,8.6554 3.537,8.4604 3.717,8.2724 C3.998,8.3934 4.251,8.5024 4.68,8.6864 C4.086,7.7914 4.502,7.2354 4.972,6.5894 M6.401,23.1514 C5.942,23.6044 5.511,24.0304 5.065,24.4704 C5.181,24.5634 5.412,24.7454 5.613,24.9054 C5.554,25.2814 5.505,25.5924 5.421,26.1334 C5.834,25.7124 6.066,25.4754 6.291,25.2464 C6.564,25.4004 6.803,25.5344 6.884,25.5804 C7.084,24.9564 7.268,24.3814 7.447,23.8264 C7.212,23.8514 6.942,23.8814 6.658,23.9124 C6.555,23.6084 6.467,23.3464 6.401,23.1514 M7.68,8.6924 C7.179,8.7564 6.904,8.7914 6.631,8.8264 C6.508,8.5454 6.399,8.2974 6.343,8.1694 C5.933,8.5814 5.528,8.9884 5.121,9.3974 C6.137,9.6104 5.414,10.4824 5.47,11.2214 C5.797,10.8834 6.03,10.6434 6.259,10.4054 C6.532,10.4934 6.778,10.5724 7.23,10.7174 C6.58,9.8434 7.041,9.3234 7.68,8.6924 M25.394,12.1254 C26.121,11.3164 26.61,11.9294 27.215,12.3654 C27.098,11.8944 27.019,11.5734 26.942,11.2634 C27.171,11.0594 27.377,10.8754 27.451,10.8104 C27.005,10.3644 26.585,9.9454 26.177,9.5364 C26.092,9.7324 25.981,9.9864 25.876,10.2274 C25.501,10.2074 25.168,10.1904 24.666,10.1634 C25.355,10.6994 25.853,11.1924 25.394,12.1254 M26.188,19.6064 C26.115,19.7634 25.992,20.0294 25.876,20.2794 C25.499,20.2584 25.166,20.2394 24.676,20.2124 C25.297,20.7694 25.881,21.2314 25.4,22.1744 C26.131,21.3854 26.628,21.9224 27.23,22.4574 C27.104,21.9524 27.024,21.6314 26.947,21.3234 C27.175,21.1064 27.383,20.9094 27.433,20.8614 C26.978,20.4024 26.586,20.0074 26.188,19.6064 M6.432,18.1964 C5.939,18.6674 5.47,19.1144 5.028,19.5374 C5.17,19.6664 5.507,19.8324 5.587,20.0804 C5.677,20.3594 5.534,20.7134 5.47,21.1914 C5.812,20.8444 6.043,20.6104 6.299,20.3504 C6.532,20.4254 6.765,20.4994 6.834,20.5224 C7.044,19.8664 7.242,19.2514 7.427,18.6724 C7.237,18.6964 6.94,18.7334 6.651,18.7694 C6.545,18.4914 6.457,18.2624 6.432,18.1964 M12.477,24.6144 C12.662,24.0384 12.842,23.4764 13.018,22.9264 C12.855,22.9384 12.557,22.9594 12.154,22.9884 C12.045,22.6954 11.936,22.3994 11.896,22.2914 C11.428,22.6984 10.971,23.0964 10.547,23.4654 C11.417,23.5534 10.925,24.3204 10.886,25.1314 C11.473,24.1764 12.068,24.3624 12.477,24.6144 M5.431,5.9754 C5.821,5.6024 6.073,5.3604 6.33,5.1134 C6.579,5.2334 6.796,5.3374 6.852,5.3634 C7.016,4.7234 7.175,4.1024 7.332,3.4884 C7.153,3.5114 6.888,3.5474 6.64,3.5804 C6.51,3.2594 6.405,3.0004 6.339,2.8394 C5.909,3.3884 5.514,3.8914 5.096,4.4234 C5.181,4.4834 5.402,4.6394 5.601,4.7804 C5.548,5.1554 5.502,5.4774 5.431,5.9754 M8.061,7.6204 C8.563,6.9324 9.134,6.8254 9.605,7.1444 C9.79,6.5704 9.964,6.0234 10.134,5.4954 C9.943,5.5044 9.643,5.5164 9.363,5.5294 C9.23,5.2064 9.119,4.9364 9.059,4.7914 C8.61,5.2474 8.17,5.6924 7.732,6.1364 C8.382,6.3654 8.284,6.9434 8.061,7.6204 M20.511,6.1234 C20.854,6.3614 21.126,6.5514 21.54,6.8394 C21.395,6.2654 21.307,5.9134 21.224,5.5854 C21.487,5.3614 21.707,5.1714 21.796,5.0954 C21.309,4.7004 20.862,4.3384 20.423,3.9834 C20.345,4.1754 20.219,4.4864 20.084,4.8174 C19.752,4.8194 19.439,4.8224 19.124,4.8244 C19.933,5.2494 19.864,5.9134 19.56,6.7444 C19.983,6.4684 20.238,6.3014 20.511,6.1234 M22.102,22.7784 C22.78,23.2304 22.81,23.8464 22.483,24.7754 C23.201,24.0714 23.746,23.9374 24.382,24.6344 C24.284,24.2004 24.225,23.9454 24.174,23.7244 C24.463,23.5184 24.698,23.3514 24.932,23.1834 C24.038,23.1434 23.631,22.6604 23.482,21.7134 C23.258,22.2014 23.124,22.4954 22.999,22.7704 C22.666,22.7734 22.384,22.7754 22.102,22.7784 M16.309,2.2434 C16.516,2.5894 16.752,2.8254 16.791,3.0914 C16.83,3.3564 16.67,3.6514 16.528,4.2034 C17.242,3.4914 17.809,3.2074 18.563,3.9644 C18.442,3.4434 18.37,3.1294 18.306,2.8534 C18.561,2.6294 18.776,2.4404 18.99,2.2524 C18.045,2.4594 17.826,1.7284 17.443,0.9914 C17.313,1.8214 17.119,2.3784 16.309,2.2434 M22.759,9.2964 C23.218,8.6364 23.815,8.9134 24.449,9.4084 C24.013,8.6254 24.279,8.1074 24.849,7.8214 C24.341,7.4764 23.837,7.1354 23.328,6.7904 C23.268,6.9434 23.149,7.2484 23.034,7.5454 C22.71,7.5724 22.421,7.5974 22.3,7.6084 C22.455,8.1744 22.597,8.6994 22.759,9.2964 M24.665,5.0154 C25.358,5.5794 25.793,6.1024 25.339,6.9404 C26.03,6.3254 26.566,6.6574 26.946,7.0044 C27.083,6.4884 27.221,5.9684 27.33,5.5634 C26.969,5.1974 26.559,4.7804 26.145,4.3584 C26.058,4.5444 25.934,4.8134 25.811,5.0784 C25.47,5.0594 25.17,5.0434 24.665,5.0154 M9.289,10.6534 C9.154,10.3464 9.038,10.0844 8.972,9.9354 C8.483,10.4344 8.01,10.9164 7.562,11.3724 C8.177,11.5454 8.209,12.0764 7.999,12.5614 C8.499,12.4584 9.045,12.3464 9.497,12.2534 C9.654,11.7644 9.839,11.1844 10.023,10.6134 C9.855,10.6224 9.603,10.6364 9.289,10.6534 M16.412,7.3794 C16.571,7.9084 16.733,8.4474 16.888,8.9604 C17.295,8.5234 17.902,8.4334 18.666,9.2124 C18.486,8.6234 18.395,8.3274 18.304,8.0284 C18.53,7.8224 18.742,7.6294 18.955,7.4364 C17.986,7.6684 17.869,6.8774 17.646,6.4374 C17.178,6.7944 16.735,7.1324 16.412,7.3794 M16.205,10.0244 C15.671,10.0144 15.319,10.0084 14.981,10.0024 C14.84,9.6694 14.723,9.3904 14.606,9.1124 C14.416,10.0574 13.672,10.1124 12.859,10.2304 C13.911,10.4834 13.833,11.1754 13.661,11.9474 C14.24,11.3474 14.812,11.3444 15.5,11.8984 C15.389,11.4204 15.316,11.1044 15.246,10.8004 C15.543,10.5594 15.806,10.3464 16.205,10.0244 M25.286,17.1564 C25.988,16.6354 26.526,16.8844 27.064,17.4124 C26.85,16.7174 26.775,16.1064 27.598,15.7174 C26.651,15.8264 26.422,15.1334 26.165,14.3784 C25.986,14.8104 25.878,15.0694 25.76,15.3554 C25.478,15.3354 25.212,15.3164 24.947,15.2984 C25.449,15.8534 25.652,16.4064 25.286,17.1564 M20.417,11.2124 C20.855,11.4914 21.145,11.6774 21.542,11.9314 C21.421,11.4314 21.336,11.0804 21.25,10.7264 C21.541,10.4984 21.804,10.2914 22.236,9.9524 C21.23,10.1274 20.749,9.7214 20.551,8.7804 C20.356,9.2984 20.228,9.6354 20.105,9.9624 C19.762,9.9814 19.459,9.9974 19.157,10.0134 C19.958,10.4234 19.893,11.0244 19.564,11.7574 C19.935,11.5204 20.213,11.3424 20.417,11.2124 M21.768,2.5524 C22.515,2.9314 22.925,3.4424 22.516,4.3194 C23.191,3.7034 23.79,3.8204 24.425,4.5164 C24.291,3.9764 24.204,3.6274 24.122,3.2994 C24.423,3.0834 24.676,2.9034 24.929,2.7224 C24.082,2.6514 23.599,2.2744 23.402,1.3674 C23.423,2.6674 22.387,2.1654 21.768,2.5524 M18.933,22.7174 C18.065,22.8114 17.673,22.3014 17.52,21.7634 C17.087,22.1554 16.666,22.5394 16.249,22.9194 C16.993,23.1854 16.831,23.8534 16.463,24.7834 C17.22,24.0734 17.81,23.7554 18.587,24.6024 C18.411,24.0054 18.302,23.6404 18.198,23.2894 C18.465,23.0814 18.699,22.8994 18.933,22.7174 M20.487,16.2914 C20.812,16.5064 21.112,16.7034 21.627,17.0434 C21.206,16.1054 21.047,15.4254 22.154,14.9744 C21.573,14.8674 21.206,14.9014 21,14.7344 C20.776,14.5524 20.703,14.1864 20.564,13.9004 C20.424,14.8634 19.75,14.9684 18.95,14.9734 C19.784,15.3974 19.965,15.9794 19.43,16.9404 C19.933,16.6314 20.208,16.4624 20.487,16.2914 M19.187,12.3044 C18.142,12.5144 17.736,12.0584 17.456,11.2774 C17.385,12.1734 16.874,12.4554 16.041,12.4894 C16.992,12.8504 16.938,13.5324 16.691,14.3254 C17.312,13.6424 17.92,13.6314 18.665,14.3084 C18.483,13.7264 18.367,13.3574 18.26,13.0184 C18.531,12.8114 18.749,12.6414 19.187,12.3044 M24.388,19.5634 C24,18.7754 24.209,18.2414 24.995,17.8434 C24.056,17.8944 23.643,17.3844 23.435,16.5514 C23.381,17.6264 22.633,17.5384 21.791,17.5504 C22.636,18.1084 22.909,18.7054 22.526,19.5884 C23.169,18.8444 23.755,19.0284 24.388,19.5634 M15.66,21.8654 C15.509,21.3594 15.407,21.0174 15.302,20.6674 C15.587,20.4164 15.865,20.1744 16.141,19.9314 C15.25,20.1104 14.861,19.6194 14.527,18.8474 C14.556,19.9884 13.769,20.0264 12.927,20.1804 C13.985,20.4424 13.854,21.1484 13.696,21.9074 C14.304,21.2014 14.923,21.3774 15.66,21.8654 M14.605,3.9054 C14.497,4.8864 13.834,5.0284 12.925,5.0004 C13.342,5.3304 13.624,5.5524 13.905,5.7764 C13.821,6.1344 13.743,6.4684 13.665,6.8024 C14.313,6.2144 14.924,6.2124 15.627,6.7724 C15.052,5.8744 15.561,5.3994 16.207,4.8634 C15.242,5.2004 14.848,4.7484 14.605,3.9054 M13.615,16.9964 C14.267,16.5124 14.859,16.0854 15.658,16.8454 C14.975,15.9364 15.607,15.4664 16.172,14.9284 C15.237,15.2204 14.833,14.7354 14.569,13.9154 C14.519,15.0324 13.807,15.1704 12.761,15.1714 C13.715,15.6274 14.142,16.1044 13.615,16.9964 M16.122,17.5614 C17.271,17.9354 16.785,18.7404 16.618,19.6894 C17.317,18.8704 17.9,18.7314 18.605,19.2804 C18.12,18.4384 18.554,17.9154 19.161,17.3224 C18.187,17.6764 17.824,17.1494 17.539,16.3364 C17.468,17.2444 16.93,17.4954 16.122,17.5614 M19.715,21.8534 C19.998,21.6774 20.279,21.5034 20.544,21.3384 C20.868,21.5634 21.151,21.7614 21.435,21.9594 C21.272,21.1334 21.124,20.4244 22.3,19.9884 C21.706,19.9184 21.378,19.8794 20.993,19.8334 C20.864,19.5324 20.729,19.2164 20.532,18.7564 C20.373,19.2524 20.269,19.5724 20.166,19.8924 C19.781,19.9214 19.435,19.9464 19.089,19.9714 C19.886,20.4524 19.984,21.0564 19.715,21.8534 M31.783,5.3834 C31.78,6.5144 31.749,7.5354 31.798,8.5524 C31.808,8.7654 32.082,9.0894 32.293,9.1494 C36.592,10.3644 40.867,11.6934 45.214,12.7044 C51.04,14.0584 56.951,14.5574 62.905,13.5064 C67.157,12.7554 71.027,11.1264 74.422,8.4264 C74.551,8.3224 74.692,8.2334 74.947,8.0524 C74.947,9.2634 74.987,10.3634 74.919,11.4584 C74.903,11.7244 74.572,12.0154 74.323,12.2174 C70.586,15.2484 66.245,16.8164 61.527,17.4334 C56.395,18.1054 51.292,17.7304 46.269,16.6334 C42.688,15.8514 39.176,14.7524 35.632,13.7984 C34.398,13.4654 33.161,13.1434 31.799,12.7834 C31.795,14.0404 31.791,15.2164 31.788,16.2684 C33.829,16.9244 35.79,17.5764 37.764,18.1824 C43.908,20.0684 50.139,21.4554 56.611,21.4574 C63.256,21.4594 69.407,19.9184 74.681,15.6514 C74.722,15.6184 74.785,15.6114 74.954,15.5484 C74.958,16.6984 74.998,17.8094 74.943,18.9154 C74.931,19.1544 74.613,19.4144 74.384,19.6004 C70.189,23.0064 65.289,24.5724 59.989,25.0204 C54.989,25.4434 50.033,24.9914 45.17,23.8274 C41.215,22.8804 37.318,21.6904 33.394,20.6134 C32.909,20.4804 32.416,20.3754 31.805,20.2284 C31.792,21.5574 31.78,22.7644 31.768,23.9254 C38.731,25.9474 45.548,28.3044 52.802,28.8314 C58.35,29.2354 63.799,28.9324 68.938,26.6194 C71.022,25.6814 72.944,24.3834 74.938,23.2494 C74.961,24.2404 75.018,25.3904 74.989,26.5384 C74.983,26.7794 74.694,27.0594 74.47,27.2414 C70.481,30.5024 65.822,32.0844 60.766,32.6234 C55.916,33.1404 51.094,32.7774 46.355,31.7324 C42.775,30.9434 39.25,29.8904 35.72,28.8894 C25.143,25.8904 14.547,25.4484 3.921,28.5984 C2.644,28.9774 1.413,29.5124 0.075,30.0074 C0.057,29.7394 0.024,29.4754 0.024,29.2114 C0.022,21.1404 0.038,13.0704 0,4.9994 C-0.003,4.1914 0.299,3.8584 0.977,3.5714 C5.677,1.5814 10.628,0.7704 15.673,0.4114 C22.853,-0.1006 29.86,0.7904 36.708,3.0084 C43.096,5.0774 49.598,6.5734 56.356,6.6194 C62.558,6.6604 68.392,5.3774 73.523,1.6764 C73.957,1.3634 74.381,1.0374 74.934,0.6254 C74.939,1.8534 74.977,2.9474 74.922,4.0374 C74.911,4.2824 74.612,4.5554 74.384,4.7404 C70.586,7.8424 66.164,9.4284 61.353,10.0314 C56.074,10.6934 50.834,10.2724 45.68,9.0944 C41.883,8.2274 38.154,7.0644 34.392,6.0404 C33.571,5.8164 32.741,5.6234 31.783,5.3834" id="Fill-1"></path>
                </g>
                <path d="M0.0532,45.6084 C0.0482,44.5374 0.0782,43.5704 0.0252,42.6074 C-0.0048,42.0814 0.2022,41.8164 0.6602,41.6694 C2.8772,40.9524 5.0512,40.0464 7.3162,39.5494 C17.0742,37.4064 26.7592,37.8024 36.2962,40.8124 C42.5072,42.7714 48.7812,44.3364 55.3312,44.5264 C61.1522,44.6954 66.7382,43.8234 71.8202,40.7774 C72.8642,40.1514 73.8352,39.4044 74.9492,38.6384 C74.9552,39.8094 74.9962,40.9214 74.9412,42.0274 C74.9292,42.2624 74.5942,42.5144 74.3622,42.6994 C70.5812,45.7024 66.2362,47.3324 61.4842,47.9584 C56.3492,48.6344 51.2492,48.2454 46.2282,47.1394 C42.5922,46.3374 39.0132,45.2694 35.4322,44.2394 C24.6212,41.1294 13.8382,41.0564 3.0742,44.4284 C2.0772,44.7404 1.1232,45.1864 0.0532,45.6084" id="Fill-4"></path>
                <path d="M74.9468,31.104 C74.9478,32.377 74.9868,33.451 74.9208,34.519 C74.9038,34.786 74.5898,35.084 74.3428,35.282 C69.8078,38.894 64.5378,40.478 58.8398,40.789 C53.7758,41.064 48.7808,40.472 43.8808,39.224 C39.7728,38.179 35.7448,36.802 31.6128,35.876 C21.5758,33.627 11.6298,33.991 1.8698,37.443 C1.5758,37.547 1.2908,37.68 1.0038,37.805 C0.7198,37.928 0.4388,38.057 0.0528,38.23 C0.0448,37.054 0.0098,35.96 0.0528,34.87 C0.0608,34.671 0.3538,34.395 0.5748,34.31 C2.0588,33.737 3.5298,33.094 5.0608,32.681 C13.5548,30.389 22.1408,30.149 30.7288,31.99 C34.6158,32.823 38.4098,34.09 42.2548,35.127 C47.2778,36.483 52.3928,37.234 57.5988,37.12 C63.9278,36.98 69.8058,35.42 74.9468,31.104" id="Fill-6"></path>
                <path d="M74.9683,46.1216 C74.9723,47.1486 75.0183,48.1726 74.9553,49.1906 C74.9383,49.4946 74.6823,49.8576 74.4283,50.0626 C70.8133,52.9786 66.6423,54.6076 62.0793,55.2966 C56.9243,56.0746 51.7823,55.7706 46.7363,54.6486 C42.1293,53.6256 37.6233,52.1626 33.0393,51.0286 C22.8083,48.4976 12.6433,48.7126 2.5903,52.0166 C2.1583,52.1576 1.7403,52.3436 1.3203,52.5176 C0.9333,52.6766 0.5513,52.8476 0.0673,53.0566 C0.0643,51.8926 0.0223,50.8176 0.0883,49.7496 C0.1033,49.5136 0.4573,49.1836 0.7223,49.0956 C3.0673,48.3166 5.3833,47.3776 7.7883,46.8736 C17.3833,44.8636 26.8953,45.2606 36.2673,48.2336 C42.5523,50.2286 48.9183,51.8016 55.5603,51.9576 C60.8433,52.0816 65.9563,51.3566 70.6793,48.8376 C72.1523,48.0526 73.5093,47.0536 74.9683,46.1216" id="Fill-8"></path>
            </g>
        </g>
    </g>
</svg>