<?xml version="1.0" encoding="UTF-8"?>
<svg width="64px" height="64px" viewBox="0 0 64 64" version="1.1" xmlns="http://www.w3.org/2000/svg" xmlns:xlink="http://www.w3.org/1999/xlink">
    <!-- Generator: Sketch 46.2 (44496) - http://www.bohemiancoding.com/sketch -->
    <title>scratch_icon</title>
    <desc>Created with Sketch.</desc>
    <defs></defs>
    <g id="Pages" stroke="none" stroke-width="1" fill="none" fill-rule="evenodd">
        <g id="Desktop-HD" transform="translate(-1008.000000, -1108.000000)" fill="#9B9B9B">
            <g id="Feature-Group" transform="translate(349.000000, 1106.000000)">
                <g id="scratch" transform="translate(640.000000, 2.000000)">
                    <g id="scratch_icon" transform="translate(19.000000, 0.000000)">
                        <path d="M49.795997,19.4950382 C49.7553679,19.2719114 49.7113531,19.0473657 49.6680154,18.8235294 L45.1764706,23.5294118 C46.5050415,22.6063976 47.8502027,21.7096336 49.2187255,20.8494072 C49.9530961,20.3879001 49.9591905,20.3875453 49.795997,19.4950382" id="Fill-1"></path>
                        <path d="M44.7149021,31.359618 C47.81829,29.1145673 51.0143818,27.0073294 54.3276307,25.0761456 C54.563405,24.9386935 54.6305605,24.8181975 54.56377,24.5447364 C54.3958812,23.8603621 54.2750742,23.1644433 54.1345586,22.4735752 C54.0801772,22.2084117 54.023971,21.9428875 53.9619251,21.6470588 C49.6997395,23.8747928 45.7298993,26.4214444 41.9513064,29.2660893 C41.4560345,28.7574083 40.9728067,28.2609934 40.4910389,27.7663824 L38.4081228,29.8252775 C38.8526632,30.2030002 39.2975685,30.5807229 39.7490434,30.963857 C38.7369659,31.8138232 37.7632108,32.6305988 36.7817913,33.4549506 C36.4500285,33.10645 36.1200905,32.7604748 35.7894225,32.4137781 L33.7116161,34.4679833 C34.013816,34.7241276 34.3105412,34.9755819 34.5923024,35.2147702 C33.7357045,36.1404974 32.8937057,37.0503508 31.9955006,38.0211738 C31.6914759,37.6899901 31.3951157,37.3671039 31.1016753,37.0478255 L29.0435776,39.0814669 C29.3596465,39.3477127 29.6720656,39.6110724 29.9790102,39.8693813 C28.0227407,42.1266981 26.0631864,44.3360329 24.1631232,46.594432 C22.2616,48.8542742 20.4900082,51.2147702 18.8235294,53.6470588 C23.1926529,49.6248717 27.5621414,45.6023238 31.9805366,41.53468 C36.3985669,45.6023238 40.7359375,49.5960103 45.0733081,53.5896969 C41.702758,48.7637217 37.9997151,44.2115684 33.9145426,39.9227747 C34.9594679,39.0446687 35.97775,38.1882088 37.0431139,37.2920645 C41.2469034,41.1685019 45.4218599,45.0186034 49.5971813,48.8687048 C46.3671468,44.2541389 42.8319927,39.8856158 38.9475568,35.740768 C40.0716818,34.8659089 41.1563895,34.0213542 42.2962084,33.1345898 C46.4025495,36.9240825 50.4880869,40.6948153 54.5739893,44.4655481 C51.4355637,39.973282 48.0022377,35.7212866 44.2623322,31.6936879 C44.4408053,31.5620081 44.5769413,31.4595504 44.7149021,31.359618" id="Fill-3"></path>
                        <path d="M14.2566159,37.71908 C13.4160221,38.7769819 12.5957998,39.8514755 11.7870141,40.934265 C10.9821598,42.0112835 10.2026806,43.1074185 9.41176471,44.1956183 C9.43106405,44.2089638 9.4503634,44.2219486 9.46930536,44.2352941 C13.4685592,40.4668116 17.4674556,36.6986898 21.4810052,32.9168618 C22.2494052,33.5278696 22.9895709,34.1168753 23.7300941,34.7062417 L25.9645297,32.4515725 C25.3087093,31.8907005 24.6543184,31.3309106 23.9749099,30.74984 C24.7937026,30.0385606 25.6014161,29.3373805 26.4495152,28.6004921 C27.0874659,29.1108676 27.7039728,29.6035692 28.3079709,30.0865323 L30.5331143,27.8405196 C30.0191798,27.3950682 29.5041731,26.9492562 28.9748706,26.4904593 C29.8154645,25.8181343 30.6278241,25.1605976 31.4551943,24.5228988 C31.5205976,24.4724023 31.7214538,24.5239809 31.8100878,24.5928725 C32.1732015,24.8760137 32.5341708,25.1627617 32.8983566,25.4538381 L35.1349367,23.1962833 C34.835082,22.9337014 34.5355847,22.6714803 34.2310839,22.4049308 C34.3554574,22.3032164 34.4569577,22.21088 34.5673929,22.1308069 C35.3622401,21.5537039 36.1402897,20.9495492 36.9587251,20.4081545 C37.850069,19.8184274 38.744987,19.234832 39.6395475,18.6505152 L44.2352941,14.0120499 C44.1205702,13.4320614 43.9997706,12.8448591 43.8768266,12.2356548 C39.5026651,14.5671509 35.4401523,17.2557294 31.5831418,20.2649608 C27.6975397,17.2358915 23.6389583,14.5501985 19.2848109,12.2352941 C19.0907452,13.2228616 18.925986,14.150194 18.7179819,15.0670663 C18.6465028,15.3833909 18.7086896,15.5327163 18.9885301,15.6989941 C22.2108065,17.6117298 25.312998,19.7094992 28.3326312,21.9327885 C28.5317004,22.079589 28.7246939,22.2339641 28.9405607,22.4006026 C28.1178366,23.1205385 27.3272781,23.8123407 26.5177777,24.5210954 C22.6965068,21.5576715 18.6943938,18.917786 14.4070793,16.6385899 C14.2097971,17.6477988 14.0457526,18.5906408 13.8323876,19.5219407 C13.7634103,19.8227557 13.8531166,19.9342087 14.0843513,20.0853375 C16.7841157,21.8498299 19.4795913,23.6211754 22.1664895,25.4055057 C22.8180212,25.8383329 23.4338133,26.3245422 23.9684768,26.7148081 C23.2325998,27.4942578 22.5117334,28.2578372 21.7847913,29.0271876 C18.0918252,26.1900051 14.2072953,23.6446202 10.045784,21.4303482 C9.85028878,22.4240474 9.68660172,23.3647252 9.47109233,24.2935004 C9.39782629,24.6091036 9.49611001,24.7292131 9.73770925,24.8882771 C12.5861501,26.7588122 15.4278004,28.6401679 18.2658768,30.5265733 C18.7044009,30.8180103 19.1164777,31.1502052 19.5432077,31.4650871 C18.6279183,32.5154145 17.7294264,33.523902 16.8573818,34.5547522 C15.9756875,35.5967838 15.1061446,36.6503574 14.2566159,37.71908" id="Fill-5"></path>
                        <path d="M51.8497818,52.0917091 C46.5156,57.4258909 39.4232364,60.3637091 31.8792364,60.3637091 C24.9450545,60.3637091 18.3963273,57.8753455 13.2396,53.3317091 L27.8599636,38.7113455 L30.0421455,36.5291636 L32.5134182,34.0578909 L34.6937818,31.8775273 L37.1941455,29.3771636 L49.2683273,17.3033455 L53.0901455,13.4811636 C57.6337818,18.6378909 60.1221455,25.1869818 60.1221455,32.1208 C60.1221455,39.6648 57.1839636,46.7571636 51.8497818,52.0917091 M11.9086909,12.1502545 C17.2428727,6.81570909 24.3352364,3.87789091 31.8792364,3.87789091 C38.8134182,3.87789091 45.3621455,6.36625455 50.5185091,10.9098909 L36.6112364,24.8175273 L34.3803273,27.0480727 L32.3901455,29.0386182 L23.2014182,38.2269818 L10.6683273,50.7604364 C6.12432727,45.6037091 3.63632727,39.0549818 3.63632727,32.1208 C3.63632727,24.5771636 6.57414545,17.4844364 11.9086909,12.1502545 M54.4210545,9.57898182 C48.3999636,3.55752727 40.3945091,0.241527273 31.8792364,0.241527273 C23.3639636,0.241527273 15.3581455,3.55752727 9.33705455,9.57898182 C3.31596364,15.6000727 -3.63636364e-05,23.6055273 -3.63636364e-05,32.1208 C-3.63636364e-05,40.6360727 3.31596364,48.6418909 9.33705455,54.6626182 C15.3581455,60.6840727 23.3639636,64.0000727 31.8792364,64.0000727 C40.3945091,64.0000727 48.3999636,60.6840727 54.4210545,54.6626182 C60.4421455,48.6418909 63.7585091,40.6360727 63.7585091,32.1208 C63.7585091,23.6055273 60.4421455,15.6000727 54.4210545,9.57898182" id="Fill-7"></path>
                    </g>
                </g>
            </g>
        </g>
    </g>
</svg>