<?xml version="1.0" encoding="UTF-8"?>
<svg width="101px" height="61px" viewBox="0 0 101 61" version="1.1" xmlns="http://www.w3.org/2000/svg" xmlns:xlink="http://www.w3.org/1999/xlink">
    <!-- Generator: Sketch 46.2 (44496) - http://www.bohemiancoding.com/sketch -->
    <title>semianiline_icon</title>
    <desc>Created with Sketch.</desc>
    <defs>
        <polygon id="path-1" points="0.545779272 0.713029303 28.7836951 0.713029303 28.7836951 43.4076873 0.545779272 43.4076873 0.545779272 0.713029303"></polygon>
        <polygon id="path-3" points="100.937846 25.5166117 100.937846 0.387534657 0.000353146853 0.387534657 0.000353146853 25.5166117"></polygon>
    </defs>
    <g id="Pages" stroke="none" stroke-width="1" fill="none" fill-rule="evenodd">
        <g id="Desktop-HD" transform="translate(-832.000000, -1110.000000)">
            <g id="Feature-Group" transform="translate(349.000000, 1106.000000)">
                <g id="Semi-Aniline" transform="translate(480.000000, 4.000000)">
                    <g id="semianiline_icon" transform="translate(3.000000, 0.000000)">
                        <polygon id="Fill-1" fill="#9B9B9B" points="0 36.7686789 41.3790513 61 101 46.7797479 101 44 0 34"></polygon>
                        <polygon id="Fill-2" fill="#9B9B9B" points="0 33.7985025 41.224591 58 101 44.3237681 55.9904243 24"></polygon>
                        <g id="Group-11">
                            <path d="M56.5538552,37.1720199 L56.5538552,37.1720199 C52.143051,41.6569957 44.9904147,41.6569957 40.5796105,37.1720199 C37.1809252,33.7167359 36.305121,28.4541057 38.3964566,24.0545785 L47.9356594,3.98779409 C48.1906315,3.45068844 48.9428343,3.45068844 49.1978063,3.98779409 L58.7370091,24.0545785 C60.8283448,28.4541057 59.9525406,33.7167359 56.5538552,37.1720199" id="Fill-3" fill="#9B9B9B"></path>
                            <g id="Group-7" transform="translate(33.902098, 0.000000)">
                                <mask id="mask-2" fill="white">
                                    <use xlink:href="#path-1"></use>
                                </mask>
                                <g id="Clip-6"></g>
                                <path d="M14.6645643,0.712813886 C13.3000049,0.712813886 12.0837671,1.48903209 11.4897741,2.73773094 L1.95057133,22.8052334 C-0.660596503,28.2983594 0.435571329,34.8886746 4.67969021,39.2034712 C7.34665524,41.9148495 10.8929559,43.4076873 14.6645643,43.4076873 C18.436879,43.4076873 21.9824734,41.9148495 24.6501448,39.2034712 C28.8935573,34.8886746 29.9904315,28.2983594 27.3785573,22.8052334 L17.8393545,2.73773094 C17.2460678,1.48903209 16.0298301,0.712813886 14.6645643,0.712813886 M14.6645643,3.58503666 C14.9160049,3.58503666 15.1681517,3.71931307 15.2959909,3.9878659 L24.8344874,24.0546503 C26.9258231,28.4541775 26.0507252,33.7168077 22.6520399,37.1720917 C20.4469909,39.4145796 17.5554245,40.5354645 14.6645643,40.5354645 C11.7737042,40.5354645 8.88284406,39.4145796 6.67708881,37.1720917 C3.27910979,33.7168077 2.40330559,28.4541775 4.49464126,24.0546503 L14.0331378,3.9878659 C14.1609769,3.71931307 14.4131238,3.58503666 14.6645643,3.58503666" id="Fill-5" fill="#FEFEFE" mask="url(#mask-2)"></path>
                            </g>
                            <g id="Group-10" transform="translate(0.000000, 33.030562)">
                                <mask id="mask-4" fill="white">
                                    <use xlink:href="#path-3"></use>
                                </mask>
                                <g id="Clip-9"></g>
                                <polygon id="Fill-8" fill="#FEFEFE" mask="url(#mask-4)" points="41.2154161 25.5166117 41.0946399 25.4448061 -1 0.969438136 -0.643321678 0.349756073 41.3312483 24.7540365 101.842497 10.2693338 102 10.9694381"></polygon>
                            </g>
                        </g>
                    </g>
                </g>
            </g>
        </g>
    </g>
</svg>