<?xml version="1.0" encoding="UTF-8"?>
<svg width="59px" height="67px" viewBox="0 0 59 67" version="1.1" xmlns="http://www.w3.org/2000/svg" xmlns:xlink="http://www.w3.org/1999/xlink">
    <!-- Generator: Sketch 46.2 (44496) - http://www.bohemiancoding.com/sketch -->
    <title>size_icon</title>
    <desc>Created with Sketch.</desc>
    <defs></defs>
    <g id="Pages" stroke="none" stroke-width="1" fill="none" fill-rule="evenodd">
        <g id="Desktop-HD" transform="translate(-369.000000, -1107.000000)">
            <g id="Feature-Group" transform="translate(349.000000, 1106.000000)">
                <g id="Avg-Hide" transform="translate(0.000000, 1.000000)">
                    <g id="size_icon" transform="translate(20.000000, 0.000000)">
                        <path d="M8.38946357,15.1635836 C9.61010399,15.2701613 10.7746126,15.4262086 11.942731,15.4598552 C13.3738205,15.5009586 13.855182,14.9555205 13.5068402,13.5676453 C13.1604837,12.1875907 13.5712744,11.1139926 14.5150462,10.1962599 C15.3788618,9.35618709 16.263975,8.52757231 17.2144249,7.79207667 C18.5198947,6.78177046 19.4577104,5.55339816 19.9928573,3.97692035 C20.2433747,3.23869661 20.5953263,2.51847832 21.0053951,1.85555012 C21.9441132,0.338544885 23.0360657,0.278162947 24.0052863,1.75679292 C24.6445748,2.73199758 25.1136632,3.82996672 25.5818491,4.90683856 C26.1940644,6.31435607 27.1069728,7.25264045 28.699238,7.44633552 C30.3673082,7.64930612 31.5256803,7.05658102 32.1272468,5.46900894 C32.4793789,4.53981823 32.673945,3.55115494 32.9883551,2.6057775 C33.1775066,2.03705968 33.3845263,1.44742642 33.7169852,0.959460348 C34.556435,-0.272913167 35.9828317,-0.348026842 36.7654277,0.908172076 C37.5550628,2.17564714 38.1089805,3.59498641 38.7320251,4.96358303 C39.094445,5.75927874 39.3440599,6.60862707 39.7248897,7.39431975 C40.4213929,8.83093699 41.504321,9.87634474 42.978908,10.5216312 C45.1880813,11.4882878 45.4481645,12.0684637 44.89172,14.4655538 C44.7554515,15.0530046 44.5957196,15.6482759 44.5713537,16.2451841 C44.5361586,17.1074455 45.033403,17.4790126 45.8515552,17.2280275 C46.4807364,17.034878 47.0799566,16.7427895 47.6912695,16.4910768 C48.1914018,16.2851963 48.6796218,16.0438504 49.1909444,15.8730714 C49.7872768,15.6737382 50.5816045,15.3627349 50.9025122,16.0440323 C51.1736052,16.6196613 51.1496003,17.462644 50.958644,18.0962906 C50.7786974,18.6944719 50.1989699,19.1653419 49.8161549,19.7073244 C49.1730761,20.6176003 48.4513045,21.4889553 47.9351088,22.4688886 C47.1117225,24.0315441 47.6901866,25.1835296 49.377569,25.619298 C51.1447271,26.0756181 51.7262595,26.733272 51.7524302,28.5909259 C51.7699376,29.8273007 51.6845667,31.075679 51.5208641,32.3018689 C51.2587955,34.2622812 51.3152883,36.20487 52.0164842,38.0370617 C53.1723294,41.0577954 53.0914708,44.1407298 52.7931241,47.2674956 C52.6897045,48.3514605 52.6656996,49.4436097 52.6252703,50.5330308 C52.524197,53.2378506 53.6123592,55.5281811 55.0568047,57.7115702 C56.20525,59.4480965 57.334022,61.2019008 58.3750768,63.004629 C58.7373163,63.6317281 58.9208726,64.4179664 58.9896385,65.1505521 C59.0932386,66.255978 58.4118964,66.9798338 57.3069488,66.8825316 C56.4631673,66.8083273 55.5751663,66.5762569 54.8315557,66.1775906 C53.8325546,65.6419738 52.9362511,64.9015675 52.0269525,64.207539 C50.4177214,62.9795305 48.6738462,62.7736499 46.8386441,63.5276966 C45.6445354,64.018027 44.4843585,64.5991122 43.3333865,65.188018 C40.5437638,66.6149959 38.040395,66.0924739 35.7530705,64.0947776 C34.9816647,63.420937 34.2671127,62.6812582 33.5115899,61.9879572 C30.6730549,59.3831677 27.4648805,59.153098 24.3094086,61.3546743 C23.3465051,62.0263325 22.4742065,62.8338499 21.4928932,63.474044 C20.5166335,64.1106005 19.4898372,64.6951413 18.4233336,65.1574633 C16.9642685,65.7900186 15.5369693,65.5373966 14.2244605,64.6498549 C13.6506891,64.2619191 13.0906348,63.8532498 12.5193902,63.4614947 C10.4621879,62.0507035 9.01268867,62.0365174 6.95783266,63.4676784 C5.89529974,64.2079028 4.88510834,65.0237864 3.8379169,65.7869268 C3.37658954,66.1230287 2.90334998,66.4551293 2.39798354,66.7148444 C1.17481629,67.3439442 0.395649546,66.9216343 0.118780937,65.5517646 C-0.149965712,64.2215433 0.0433369484,62.9633437 0.63768397,61.7593424 C0.797776836,61.4348805 0.952094085,61.0978692 1.16831872,60.8119644 C2.48588121,59.0698 2.99720374,57.0450045 3.37388222,54.9323642 C3.59949224,53.6667079 3.95397069,52.3766805 4.5169128,51.230515 C5.51067979,49.2068107 5.91804123,47.109084 5.76318252,44.8965952 C5.50779198,41.2491261 5.81750941,37.7096897 7.33974529,34.3273919 C8.07324857,32.697807 8.11855106,31.0371219 7.45128688,29.3080524 C6.78005197,27.5686161 7.04392544,27.1052029 8.70134685,26.1831053 C11.0045544,24.9014441 11.3038035,22.9272094 9.47798676,20.9649783 C9.06755703,20.5239355 8.60189796,20.1354541 8.17504381,19.7091431 C7.72743354,19.2622804 7.26087203,18.8274213 6.86560329,18.3358178 C6.31078314,17.6457905 5.99240229,16.8380911 6.39651495,15.9761935 C6.80261297,15.1108403 7.66083347,15.1843171 8.38946357,15.1635836" id="Hide" fill="#9B9B9B"></path>
                        <text id="50" font-family=".AppleSystemUIFont" font-size="14" font-weight="normal" letter-spacing="-0.0866669846" fill="#FFFFFF">
                            <tspan x="20.5837373" y="41.5">50</tspan>
                        </text>
                    </g>
                </g>
            </g>
        </g>
    </g>
</svg>