<svg viewBox="0 0 15 14" version="1.1" xmlns="http://www.w3.org/2000/svg" xmlns:xlink="http://www.w3.org/1999/xlink">
  <defs></defs>
  <g id="Product-Page" stroke="none" stroke-width="1" fill="none" fill-rule="evenodd">
    <g id="Product-Page---Desktop" transform="translate(-579.000000, -650.000000)" stroke="#D8D8D8">
      <g id="Main-Product-Group" transform="translate(20.000000, 251.000000)">
        <g id="Wishlist" transform="translate(560.000000, 398.000000)">
          <g id="State-1">
            <path d="M6.66637522,3.31132869 C6.85880552,3.13745416 7.04487875,2.94468023 7.25517759,2.78334804 C9.11642535,1.35386577 11.7929247,1.96740918 12.876376,4.06593038 C13.2404473,4.77105 13.3691351,5.51877918 13.3029872,6.30585349 C13.1926834,7.61970576 12.6391026,8.74559485 11.834847,9.76272646 C10.9331736,10.9035633 9.82463759,11.8129683 8.59875346,12.578566 C8.00514034,12.9491661 7.37871097,13.2670198 6.76379306,13.6032574 C6.71551367,13.6297165 6.63218448,13.6353863 6.58390509,13.6120198 C4.81732617,12.7575949 3.20744049,11.6830778 1.88070227,10.2204357 C1.13125495,9.39418807 0.53781364,8.47086623 0.227176148,7.38724308 C-0.0260758779,6.50326636 -0.10614063,5.60726276 0.188518274,4.7213961 C0.682651807,3.23521563 1.70339149,2.30759847 3.25520444,2.05211288 C4.49448997,1.84799931 5.56883523,2.25107207 6.4656979,3.12800446 C6.53012769,3.19105974 6.5988528,3.24981971 6.66637522,3.31132869 Z" id="Page-1"></path>
          </g>
        </g>
      </g>
    </g>
  </g>
</svg>
