<svg width="16" height="16" viewBox="0 0 16 16" xmlns="http://www.w3.org/2000/svg" xmlns:xlink="http://www.w3.org/1999/xlink">
  <g fill="none" fill-rule="evenodd">
    <path d="M9 1.5a1.5 1.5 0 11-3 0 1.5 1.5 0 013 0" fill="#EF523E"/>
    <path d="M9 14.5a1.5 1.5 0 11-3 0 1.5 1.5 0 013 0" fill="#6FCACC"/>
    <path d="M14.5 9a1.5 1.5 0 110-3 1.5 1.5 0 010 3" fill="#EED53E"/>
    <path d="M1.5 9a1.5 1.5 0 110-3 1.5 1.5 0 010 3" fill="#8857A3"/>
    <path d="M13.56 4.56a1.5 1.5 0 11-2.12-2.122 1.5 1.5 0 012.12 2.123" fill="#EE8D40"/>
    <path d="M4.56 13.56a1.5 1.5 0 11-2.12-2.12 1.5 1.5 0 012.12 2.12" fill="#4C5AA8"/>
    <path d="M11.44 13.56a1.5 1.5 0 112.121-2.12 1.5 1.5 0 01-2.122 2.12" fill="#7EC142"/>
    <path d="M2.44 4.56a1.5 1.5 0 112.122-2.12 1.5 1.5 0 01-2.123 2.12" fill="#D4509C"/>
  </g>
</svg>
