<svg viewBox="0 0 10 10" version="1.1" xmlns="http://www.w3.org/2000/svg" xmlns:xlink="http://www.w3.org/1999/xlink">
    <defs></defs>
    <g id="Product-Page" stroke="none" stroke-width="1" fill="none" fill-rule="evenodd">
        <g id="Product-Page---Desktop" transform="translate(-729.000000, -549.000000)">
            <g id="Main-Product-Group" transform="translate(20.000000, 251.000000)">
                <g id="Personalization" transform="translate(556.000000, 286.000000)">
                    <g id="State-1" transform="translate(0.000000, 8.000000)">
                        <g id="Help-Icon" transform="translate(153.000000, 4.000000)">
                            <ellipse id="Oval-2-Copy" stroke="#979797" stroke-width="0.5" cx="4.74627872" cy="4.98730469" rx="4.44947175" ry="4.56542969"></ellipse>
                            <path d="M4.57113139,6.08831332 L4.91429704,6.08831332 L4.98158442,5.34267092 C5.74866059,5.23220538 6.38116199,4.80415141 6.38116199,3.94113936 L6.38116199,3.92733117 C6.38116199,3.14026419 5.78230428,2.5603201 4.87392461,2.5603201 C4.15394961,2.5603201 3.67620919,2.88481262 3.29267111,3.36119527 L3.63583676,3.69949599 C3.97900242,3.29215431 4.3625405,3.05051094 4.86046713,3.05051094 C5.46605358,3.05051094 5.84286293,3.45094852 5.84286293,3.94804346 L5.84286293,3.96185165 C5.84286293,4.54179575 5.37857998,4.91461695 4.503844,4.93532924 L4.47020031,4.96984972 L4.57113139,6.08831332 Z M4.42982788,7.4553244 L5.04887181,7.4553244 L5.04887181,6.73039428 L4.42982788,6.73039428 L4.42982788,7.4553244 Z" id="?" fill="#9B9B9B"></path>
                        </g>
                    </g>
                </g>
            </g>
        </g>
    </g>
</svg>
