<svg viewBox="0 0 16 16" version="1.1" xmlns="http://www.w3.org/2000/svg" xmlns:xlink="http://www.w3.org/1999/xlink">
    <defs></defs>
    <g id="Product-Page" stroke="none" stroke-width="1" fill="none" fill-rule="evenodd">
        <g id="Product-Page---Desktop" transform="translate(-396.000000, -712.000000)" fill="#9B9B9B">
            <g id="Main-Product-Group" transform="translate(20.000000, 251.000000)">
                <g id="Help-Group" transform="translate(223.000000, 366.000000)">
                    <g id="Care" transform="translate(153.000000, 95.000000)">
                        <g id="Icon">
                            <path d="M6.98032129,10.3725099 C6.95040207,10.2418086 6.76673127,10.0826606 6.61713515,10.0472944 C6.40520731,9.99655154 6.16419134,10.0472944 5.93397953,10.053445 C4.38815293,10.0964996 2.84897504,10.058058 1.33805421,9.70747108 C0.729696642,9.566775 0.720554657,9.54294124 0.806156882,8.9970712 C1.6729833,9.10547638 2.53482319,9.25924259 3.40497397,9.30998543 C4.46295099,9.37149192 5.52674564,9.34996465 6.58721593,9.3561153 C6.84152933,9.35765296 7.01107161,9.2200322 6.99943635,8.98323225 C6.98697001,8.72721151 6.79000178,8.63418296 6.52322203,8.63341413 C5.49931968,8.63264529 4.47126188,8.66724269 3.45151498,8.60881153 C2.61959432,8.56114401 0.921678332,8.45581416 0.968219348,8.28897782 C0.973205886,7.98682723 2.08686591,7.8622766 2.65200682,7.83382985 C3.93853347,7.76771038 5.22838448,7.76155974 6.51574222,7.73849481 C6.78169089,7.73311299 6.9794902,7.65238573 6.99860526,7.39559617 C7.01605814,7.17647932 6.85732004,7.02963259 6.62378387,7.02501961 C4.70729132,6.98119624 2.78830551,6.9381417 0.915860705,7.42558058 C0.539377131,7.52399095 0,7.73465065 0,8.31127392 L0,13.9860158 C0,14.3319897 0.832751748,14.7133299 2.06442649,14.8709403 C3.42076467,15.0431584 5.51677256,14.9901091 6.50660024,14.9985662 C6.78917069,15.0008727 7.0035918,14.9109195 6.99777417,14.6341403 C6.99777417,14.6049247 6.98530783,14.5864728 6.98032129,14.5618702 L6.98032129,10.3725099 Z" id="Fill-3"></path>
                            <g id="Group-7" transform="translate(7.000000, 0.000000)">
                                <path d="M7.47343636,14.97056 C6.03343636,15.29056 4.57707273,15.28816 3.11907273,15.20416 C2.50789091,15.16896 1.89998182,15.04656 1.29616364,14.93376 C1.16689091,14.90976 0.974618182,14.76656 0.960709091,14.66016 C0.917345455,14.32096 0.945163636,13.97136 0.945163636,13.61136 C3.28598182,14.07856 5.58670909,14.07616 7.92016364,13.61376 C7.92016364,13.88656 7.89316364,14.15456 7.92670909,14.41616 C7.97252727,14.77456 7.80561818,14.89616 7.47343636,14.97056 M0.948436364,6.07056 C0.936981818,5.46816 1.2258,5.20736 1.84434545,5.20576 C2.71161818,5.20336 3.57807273,5.20496 4.44534545,5.20496 C5.33634545,5.20496 6.22652727,5.20016 7.11670909,5.20736 C7.63216364,5.21136 7.90298182,5.48176 7.91852727,5.98016 C7.92261818,6.09616 7.90216364,6.21536 7.92343636,6.32816 C7.99461818,6.72016 7.81298182,6.87776 7.43089091,6.95216 C5.58343636,7.31136 3.73107273,7.32816 1.88116364,7.02416 C0.687436364,6.82816 0.965618182,6.87136 0.948436364,6.07056 M3.55925455,3.22816 C3.59443636,2.83136 3.97898182,2.54016 4.40361818,2.52336 C4.83152727,2.50656 5.2758,2.79856 5.31752727,3.19296 C5.36170909,3.61296 5.32734545,4.04016 5.32734545,4.47376 L3.55189091,4.47376 C3.55189091,4.03536 3.52407273,3.62896 3.55925455,3.22816 M7.07661818,4.48416 C6.77225455,4.50496 6.46461818,4.48736 6.10707273,4.48736 C6.15534545,3.35296 6.2118,2.25856 4.84216364,1.82176 L4.84216364,1.22016 C5.02216364,1.22016 5.20707273,1.22576 5.39116364,1.21856 C5.63089091,1.20736 5.81743636,1.10496 5.82643636,0.85136 C5.83625455,0.59136 5.64807273,0.47136 5.41161818,0.46896 C4.37825455,0.45936 3.34407273,0.45936 2.30989091,0.47056 C2.0898,0.47296 1.91552727,0.59376 1.91470909,0.83616 C1.91470909,1.09536 2.09634545,1.21056 2.33361818,1.21616 C2.88998182,1.22656 3.44716364,1.21936 4.02807273,1.21936 L4.02807273,1.82176 C3.47498182,1.98736 3.02416364,2.30896 2.88834545,2.86256 C2.76234545,3.37296 2.76889091,3.91376 2.71325455,4.48736 C2.39743636,4.48736 2.05625455,4.48336 1.71589091,4.48816 C0.809345455,4.50256 0.198163636,5.09936 0.197345455,5.97936 C0.194890909,8.90816 0.200618182,11.83616 0.192436364,14.76416 C0.1908,15.11696 0.329890909,15.37056 0.6498,15.47056 C1.16525455,15.63056 1.69134545,15.78736 2.2248,15.85776 C3.70161818,16.05536 5.1858,16.03856 6.66343636,15.85856 C7.15189091,15.79936 7.63461818,15.66496 8.10834545,15.52576 C8.5158,15.40656 8.69416364,15.12096 8.69252727,14.68256 C8.68025455,11.81216 8.67370909,8.94176 8.69334545,6.07136 C8.69989091,5.16656 8.02243636,4.41856 7.07661818,4.48416" id="Fill-5"></path>
                            </g>
                        </g>
                    </g>
                </g>
            </g>
        </g>
    </g>
</svg>
