<svg viewBox="0 0 15 15" version="1.1" xmlns="http://www.w3.org/2000/svg" xmlns:xlink="http://www.w3.org/1999/xlink">
    <defs></defs>
    <g id="Product-Page" stroke="none" stroke-width="1" fill="none" fill-rule="evenodd">
        <g id="Product-Page---Desktop" transform="translate(-283.000000, -713.000000)" fill="#9B9B9B">
            <g id="Main-Product-Group" transform="translate(20.000000, 251.000000)">
                <g id="Help-Group" transform="translate(223.000000, 366.000000)">
                    <g id="Shipping" transform="translate(40.000000, 96.000000)">
                        <g id="Icon">
                            <g id="Group-3">
                                <path d="M14.0903729,11.6716429 C12.0382908,12.4962347 9.9878765,13.324602 7.93704526,14.152051 C7.8968104,14.1682755 7.85563742,14.1821531 7.79278348,14.2052143 L7.79278348,14.0399082 C7.79278348,11.4209286 7.79382583,8.80205102 7.78955218,6.18307143 C7.78934371,6.06133673 7.82968281,6.01154082 7.94121467,5.9667449 C9.98912733,5.14368367 12.0350595,4.31592857 14.0816171,3.4895 C14.1179953,3.47480612 14.1560412,3.46409184 14.2151426,3.44409184 L14.2151426,3.59531633 C14.2151426,6.22307143 14.2145172,8.85062245 14.21754,11.4782755 C14.2177485,11.5802143 14.1904388,11.6314388 14.0903729,11.6716429 M7.59442354,5.39184694 C7.48664415,5.43541837 7.39554242,5.4322551 7.28880538,5.38837755 C6.72218182,5.15480612 6.1527439,4.92807143 5.58434833,4.69868367 C5.54942948,4.6845 5.51586568,4.66694898 5.46280987,4.64235714 C5.52847816,4.61164286 5.57434173,4.58827551 5.62156036,4.56837755 C7.47507402,3.78623469 9.32848344,3.00388776 11.1833522,2.2250102 C11.2420367,2.20031633 11.3239657,2.18878571 11.3817121,2.20858163 C12.0796723,2.44694898 12.7753392,2.6922551 13.4714231,2.93613265 C13.5002963,2.94623469 13.5279187,2.95960204 13.5746162,2.97909184 C13.1768539,3.1400102 12.7954567,3.29460204 12.4136424,3.44847959 C10.8070624,4.09582653 9.19996121,4.74215306 7.59442354,5.39184694 M7.10587228,14.0722551 L7.10587228,14.2076633 C6.986627,14.1610306 6.88405937,14.1222551 6.78263834,14.0812347 C4.79330598,13.2782755 2.80439055,12.4742959 0.813807362,11.674398 C0.708946563,11.6323571 0.680594538,11.577051 0.680803008,11.4713367 C0.683617364,8.84745918 0.682991951,6.22358163 0.682991951,3.59980612 L0.682991951,3.4372551 C0.801820293,3.48470408 0.899801557,3.52368367 0.997782821,3.56286735 C1.52980024,3.77562245 2.06087954,3.99082653 2.59487742,4.19878571 C2.6899401,4.23572449 2.71839636,4.28368367 2.71787518,4.38164286 C2.71109988,5.59296939 2.71109988,6.80429592 2.7038034,8.01562245 C2.70255258,8.20786735 2.78072912,8.32511224 2.96105634,8.39786735 C3.44710595,8.5939898 3.92961156,8.79858163 4.41420187,8.99807143 C4.72273862,9.12511224 4.93610846,8.99358163 4.94611505,8.66286735 C4.9621673,8.13837755 4.9704019,7.61358163 4.98134662,7.08909184 C4.99322945,6.52939796 5.00417417,5.96980612 5.01595276,5.41031633 C5.01730782,5.34990816 5.02158148,5.28960204 5.02543818,5.20858163 C5.07964059,5.22643878 5.11997968,5.2372551 5.15844254,5.25296939 C5.77134662,5.5022551 6.38341681,5.75419388 6.99798865,5.99960204 C7.08273202,6.03337755 7.10795699,6.07409184 7.10795699,6.16133673 C7.1053511,8.79837755 7.10587228,11.4353163 7.10587228,14.0722551 M2.68712574,2.44511224 C4.16799789,1.90490816 5.64928698,1.36592857 7.12932524,0.823479592 C7.2269938,0.787663265 7.31173717,0.782459184 7.41096926,0.818785714 C7.77360417,0.951336735 8.13947038,1.07592857 8.50408576,1.20388776 C8.54432062,1.21807143 8.5837216,1.23470408 8.65668637,1.26296939 C7.91359229,1.57133673 7.20437472,1.86511224 6.49557409,2.1595 C5.35179918,2.63460204 4.20854545,3.11082653 3.06351973,3.58266327 C3.00462673,3.60684694 2.92071725,3.61756122 2.86443014,3.59552041 C2.36806122,3.40184694 1.87523631,3.1995 1.38168175,2.99909184 C1.3585415,2.98970408 1.33748595,2.97531633 1.29818921,2.9539898 C1.7732941,2.77980612 2.22994933,2.61194898 2.68712574,2.44511224 M4.30100224,8.22133673 C3.99413326,8.10194898 3.72520596,7.99929592 3.45867608,7.89082653 C3.43157488,7.87980612 3.40280591,7.83337755 3.40291015,7.80347959 C3.40687109,6.73235714 3.4142718,5.66113265 3.42146405,4.58990816 C3.42146405,4.58633673 3.42584193,4.58276531 3.43626547,4.56735714 C3.47201821,4.57847959 3.51287848,4.58837755 3.55144557,4.60388776 C3.78191001,4.6972551 4.01049822,4.79582653 4.24294313,4.88419388 C4.32528909,4.91552041 4.34488534,4.96103061 4.34290487,5.04133673 C4.32685262,5.71021429 4.31184272,6.37909184 4.3020446,7.04796939 C4.29641589,7.42807143 4.30100224,7.80827551 4.30100224,8.22133673 M9.74313181,1.62286735 C9.93169363,1.6989898 10.1257799,1.76154082 10.3430065,1.83878571 C10.2764001,1.87041837 10.2329339,1.89317347 10.1879042,1.91215306 C8.35085974,2.68623469 6.51391951,3.46062245 4.67520728,4.23072449 C4.6151677,4.25582653 4.52854809,4.25531633 4.46621533,4.23368367 C4.25795303,4.16154082 4.05511096,4.07429592 3.82381264,3.98235714 C4.27629846,3.79347959 4.70053648,3.61603061 5.12519145,3.43919388 C6.5721871,2.83705102 8.01959968,2.23572449 9.46565721,1.63123469 C9.561658,1.59123469 9.64421243,1.58307143 9.74313181,1.62286735 M14.8987183,3.01776531 C14.8986141,2.8195 14.8280467,2.71888776 14.6401103,2.65245918 C12.2312305,1.80215306 9.82255918,0.951540816 7.41180314,0.106336735 C7.32778942,0.0768469388 7.2134432,0.0769489796 7.13005489,0.107255102 C4.85011426,0.935112245 2.57225835,1.76858163 0.294298192,2.60154082 C0.0568499802,2.68837755 4.16941549e-05,2.77194898 4.16941549e-05,3.02470408 C-6.25412324e-05,4.48072449 -6.25412324e-05,5.93694898 4.16941549e-05,7.39296939 C4.16941549e-05,8.85786735 -0.00016677662,10.3226633 0.000145929542,11.7875612 C0.000145929542,11.9941939 0.0567457448,12.0766429 0.253646391,12.1557245 C2.59466895,13.0959286 4.93517034,14.0371531 7.27859032,14.9713367 C7.37115134,15.0080714 7.50509381,15.0102143 7.59713366,14.9735816 C9.94951788,14.0381735 12.2988793,13.0948061 14.6495957,12.1550102 C14.8204375,12.0867449 14.8995522,11.9725612 14.8995522,11.7938878 C14.8986141,8.86847959 14.8989268,5.94317347 14.8987183,3.01776531" id="Fill-1"></path>
                            </g>
                            <path d="M12.1772487,11.385709 C11.5117611,11.6549983 10.8492543,11.9310199 10.1855331,12.2041562 C10.1388342,12.223498 10.0904792,12.2385654 10.0299804,12.260365 L10.0299804,11.9210818 C10.0299804,11.0930172 10.0303116,10.2649526 10.0295388,9.43699478 C10.0294284,9.37106165 10.028766,9.31976844 10.1114551,9.286321 C10.8245248,8.99726243 11.5353866,8.70286082 12.2469107,8.41027585 C12.2592754,8.40514653 12.2734065,8.40418478 12.2983568,8.39862802 C12.3006752,8.44639481 12.30476,8.48967345 12.3048704,8.53295209 C12.3052016,9.42043135 12.3032144,10.3080175 12.3078512,11.1954967 C12.3082928,11.2988312 12.2750625,11.3461705 12.1772487,11.385709 M13.0406824,7.91166318 C13.040572,7.5634037 12.80785,7.41379853 12.4777558,7.54983238 C11.5184955,7.94532434 10.5605599,8.34380841 9.59975392,8.73523966 C9.4022494,8.81559901 9.32055384,8.94393888 9.32243063,9.14804308 C9.3278402,9.74763924 9.32430742,10.3473423 9.32430742,10.9471522 C9.32430742,11.542367 9.34252332,12.1382231 9.31646906,12.7323693 C9.30399393,13.0160848 9.56387412,13.214098 9.86934925,13.0843689 C10.8367792,12.6730616 11.8110539,12.276501 12.7840038,11.8775895 C12.9630716,11.8040692 13.0431112,11.6855605 13.0424488,11.49631 C13.0391368,10.301499 13.0409032,9.10658107 13.0406824,7.91166318" id="Fill-4"></path>
                        </g>
                    </g>
                </g>
            </g>
        </g>
    </g>
</svg>
