<?xml version="1.0" encoding="UTF-8"?>
<svg width="59px" height="58px" viewBox="0 0 59 58" version="1.1" xmlns="http://www.w3.org/2000/svg" xmlns:xlink="http://www.w3.org/1999/xlink">
    <!-- Generator: Sketch 61.2 (89653) - https://sketch.com -->
    <title>Icon</title>
    <desc>Created with Sketch.</desc>
    <g id="Page-1" stroke="none" stroke-width="1" fill="none" fill-rule="evenodd">
        <g id="Icon" fill="#222E32">
            <path d="M26.9240964,37.2253485 C26.8086937,36.7515563 26.1002492,36.1746447 25.5232356,36.0464422 C24.7057996,35.8624993 23.7761666,36.0464422 22.8882067,36.0687383 C16.9257327,36.224811 10.9889037,36.0854603 5.16106623,34.8145827 C2.81454419,34.3045594 2.77928225,34.218162 3.10946226,32.2393831 C6.4529356,32.6323519 9.77717515,33.1897544 13.133471,33.3736972 C17.2142395,33.5966582 21.3174475,33.5186218 25.4078329,33.5409179 C26.388756,33.546492 27.0427048,33.0476167 26.9978259,32.1892169 C26.9497415,31.2611417 26.1900069,30.9239132 25.1609993,30.9211262 C21.2116616,30.9183392 17.2462958,31.0437548 13.3129864,30.8319418 C10.1041495,30.659147 3.555045,30.2773263 3.73456034,29.6725446 C3.75379413,28.5772487 8.04933993,28.1257527 10.2291691,28.0226332 C15.1914862,27.7829501 20.1666259,27.760654 25.1321486,27.6770437 C26.1579506,27.6575346 26.9208908,27.3648983 26.9946203,26.4340361 C27.0619386,25.6397375 26.449663,25.1074182 25.5488806,25.0906961 C18.1566951,24.9318364 10.7548927,24.7757637 3.53260558,26.5427296 C2.08045465,26.8994672 0,27.6631086 0,29.753368 L0,50.3243072 C0,51.5784628 3.21204246,52.960821 7.96278789,53.5321585 C13.194378,54.1564493 21.2789799,53.9641455 25.0968866,53.9948026 C26.1868012,54.0031636 27.0138541,53.6770832 26.9914147,52.6737587 C26.9914147,52.5678522 26.9433302,52.5009639 26.9240964,52.4117795 L26.9240964,37.2253485 Z" id="Fill-3"></path>
            <g id="Group-7" transform="translate(28.000000, 0.000000)">
                <path d="M25.9150174,53.5499663 C20.7896841,54.7310572 15.6061083,54.722199 10.4167083,54.4121626 C8.2413538,54.2822426 6.07764773,53.8304754 3.92850228,53.4141408 C3.46838713,53.325559 2.78403864,52.7970208 2.73453258,52.4043081 C2.58019016,51.1523517 2.67920228,49.8620099 2.67920228,48.5332826 C11.0107811,50.2576754 19.1996659,50.2488172 27.5050356,48.5421408 C27.5050356,49.5490208 27.4089356,50.5381844 27.5283326,51.5037263 C27.6914114,52.8265481 27.0973386,53.2753626 25.9150174,53.5499663 M2.69085076,20.7008754 C2.65008107,18.4774717 3.67805986,17.5148826 5.87962349,17.5089772 C8.96647198,17.500119 12.0504083,17.5060244 15.1372568,17.5060244 C18.3085568,17.5060244 21.4769447,17.4883081 24.6453326,17.5148826 C26.4799689,17.5296463 27.4438811,18.5276681 27.4992114,20.3672172 C27.513772,20.7953626 27.4409689,21.235319 27.5166841,21.6516535 C27.7700386,23.0984899 27.1235477,23.6801772 25.7635871,23.9547808 C19.1880174,25.2805554 12.594975,25.3425626 6.01066895,24.2205263 C1.7618841,23.4971081 2.75200531,23.6565554 2.69085076,20.7008754 M11.9834296,10.2098354 C12.1086508,8.74528263 13.4773477,7.6704899 14.9887386,7.60848263 C16.511778,7.54647536 18.0930599,8.62422081 18.241578,10.0799154 C18.3988326,11.6300972 18.2765235,13.2068535 18.2765235,14.8072317 L11.9572205,14.8072317 C11.9572205,13.1891372 11.8582083,11.6891517 11.9834296,10.2098354 M24.5026386,14.8456172 C23.4193296,14.9223881 22.324372,14.8574281 21.051775,14.8574281 C21.2235902,10.6704608 21.4245265,6.6311299 16.5496356,5.01894081 L16.5496356,2.7984899 C17.1903023,2.7984899 17.8484417,2.81915899 18.5036689,2.79258445 C19.3569205,2.75124627 20.0208841,2.37329717 20.0529174,1.43728263 C20.0878629,0.477646266 19.418075,0.034737175 18.576472,0.0258789931 C14.8984629,-0.00955373413 11.2175417,-0.00955373413 7.53662046,0.0317844477 C6.75325986,0.0406426295 6.13297804,0.486504448 6.13006592,1.38118081 C6.13006592,2.33786445 6.77655683,2.76305717 7.62107198,2.78372627 C9.6013144,2.82211172 11.5844689,2.79553717 13.652075,2.79553717 L13.652075,5.01894081 C11.6834811,5.63015536 10.0789023,6.81715172 9.59549016,8.86043899 C9.14702349,10.744279 9.17032046,12.7403226 8.97229622,14.8574281 C7.84821743,14.8574281 6.63386289,14.8426644 5.42242046,14.8603808 C2.19579016,14.9135299 0.0204356133,17.1162644 0.0175234921,20.3642644 C0.00878712844,31.174199 0.0291719769,41.9811808 0,52.7881626 C-0.00577347762,54.0903154 0.489287128,55.0263299 1.62792652,55.3954208 C3.46256289,55.9859663 5.33505683,56.5647008 7.23375986,56.8245408 C12.4901386,57.5538644 17.7727265,57.4918572 23.0320174,56.8274935 C24.7705538,56.6089917 26.4887053,56.1129335 28.1748235,55.599159 C29.6250599,55.1592026 30.2599023,54.105079 30.254078,52.4869844 C30.2103962,41.892599 30.1870992,31.2982135 30.2571575,20.7038281 C30.2802871,17.3642935 27.8690508,14.6034935 24.5026386,14.8456172" id="Fill-5"></path>
            </g>
        </g>
    </g>
</svg>