<svg width="16px" height="15px" viewBox="0 0 16 15" version="1.1" xmlns="http://www.w3.org/2000/svg" xmlns:xlink="http://www.w3.org/1999/xlink">
    <defs></defs>
    <g id="Homepage" stroke="none" stroke-width="1" fill="none" fill-rule="evenodd">
        <g id="Mobile---Homepage" transform="translate(-265.000000, -96.000000)" fill="#6E7070">
            <g id="Header" transform="translate(-4.000000, 20.000000)">
                <g id="NAV" transform="translate(0.000000, 55.000000)">
                    <g id="Cart" transform="translate(255.000000, 21.000000)">
                        <g id="Icon" transform="translate(14.000000, 0.000000)">
                            <path d="M5.72497778,9.69810492 C5.66018765,9.96899016 5.59875556,10.2259082 5.53297778,10.5009246 L5.73643457,10.5009246 C8.23974321,10.5009246 10.7434469,10.5007279 13.2469531,10.5011213 C13.6791506,10.501318 13.9809778,10.7560721 14.0232494,11.1526623 C14.0617679,11.5152197 13.7945086,11.8596787 13.4310519,11.9125967 C13.3629037,11.9226295 13.2933728,11.9275475 13.2246321,11.9275475 C10.3803852,11.9283344 7.53613827,11.9285311 4.69208889,11.927941 C4.28379259,11.927941 4.01475556,11.7499082 3.9337679,11.4072197 C3.90650864,11.2923344 3.90650864,11.1603344 3.93297778,11.044859 C4.07223704,10.4326623 4.22650864,9.82420328 4.36873086,9.21279344 C4.38868148,9.12643279 4.38986667,9.02649836 4.36813827,8.94092459 C3.7443358,6.50905574 3.11638519,4.07817049 2.48902716,1.64708852 C2.47697778,1.60007213 2.46275556,1.55344918 2.44655802,1.49521967 L1.32300247,1.49521967 C1.11559506,1.49521967 0.908187654,1.49699016 0.700780247,1.49462951 C0.308681481,1.49010492 0.000138271605,1.17751475 0.000138271605,0.787219672 C0.000138271605,0.396727869 0.30828642,0.0819737705 0.700780247,0.0805967213 C1.46621235,0.0782360656 2.23144691,0.0792196721 2.99687901,0.0800065574 C3.3474963,0.0805967213 3.60902716,0.278104918 3.70028642,0.619613115 C3.82295309,1.0791541 3.94087901,1.53987541 4.05505185,2.00158033 C4.07875556,2.09738361 4.11826173,2.13712131 4.22196543,2.14144918 C5.15391605,2.17921967 6.0860642,2.22210492 7.01801481,2.26459672 C8.00902716,2.3096459 9.00023704,2.35607213 9.99144691,2.40171148 C10.6964346,2.43436721 11.4014222,2.46721967 12.1068049,2.49928525 C13.1963852,2.54905574 14.2863605,2.59548197 15.3759407,2.64918689 C15.8352,2.67180984 16.1320889,3.20787541 15.9300148,3.64007213 C15.4749037,4.61443279 15.0172247,5.58741639 14.5607309,6.56118689 C14.200237,7.33017049 13.8344099,8.09679344 13.4822123,8.86971148 C13.3320889,9.19941639 13.086558,9.35285902 12.7319901,9.3684 C11.380879,9.42780984 10.0295704,9.48918689 8.67865679,9.55292459 C7.69771852,9.59876066 6.71717531,9.64912131 5.72497778,9.69810492" id="Fill-1"></path>
                            <path d="M4.17994,13.5495643 C4.18054,12.7455643 4.77934,12.1076357 5.53314,12.1082786 C6.28334,12.1089214 6.87934,12.75135 6.87874,13.55835 C6.87814,14.3612786 6.27754,15.0007071 5.52514,15.0000643 C4.77534,14.9992071 4.17934,14.3567786 4.17994,13.5495643" id="Fill-4"></path>
                            <path d="M12.08565,13.54935 C12.0865071,12.74535 12.7280786,12.1076357 13.5359357,12.1082786 C14.3395071,12.1091357 14.9780786,12.7515643 14.9772214,13.5585643 C14.9763643,14.3614929 14.3328643,15.0007071 13.5267214,15.0000643 C12.7233643,14.9992071 12.0847929,14.3565643 12.08565,13.54935" id="Fill-7"></path>
                        </g>
                    </g>
                </g>
            </g>
        </g>
    </g>
</svg>