<svg width="53px" height="59px" viewBox="0 0 53 59" version="1.1" xmlns="http://www.w3.org/2000/svg" xmlns:xlink="http://www.w3.org/1999/xlink">
    <!-- Generator: Sketch 50.2 (55047) - http://www.bohemiancoding.com/sketch -->
    <title>Hide</title>
    <desc>Created with Sketch.</desc>
    <defs>
        <polygon id="path-1" points="0.000271545033 0.0859518911 52.9433627 0.0859518911 52.9433627 59 0.000271545033 59"></polygon>
    </defs>
    <g id="Homepage" stroke="none" stroke-width="1" fill="none" fill-rule="evenodd">
        <g id="Desktop-HD" transform="translate(-694.000000, -1970.000000)">
            <g id="Materials-Matter" transform="translate(0.000000, 1970.000000)">
                <g transform="translate(589.000000, 0.000000)" id="Hide">
                    <g transform="translate(105.000000, 0.000000)">
                        <path d="M27,6.26769865 C27.192,6.19369865 27.386,6.10769865 27.561,6.00119865 C27.504,5.98819865 27.376,6.08119865 27,6.26769865" id="Fill-1" fill="#231F20"></path>
                        <path d="M2,52.139 C2.042,52.093 2.09,52.041 2.128,52 C2.024,52.0975 2.003,52.128 2,52.139" id="Fill-3" fill="#231F20"></path>
                        <path d="M39.04,12.0625 C39.041,12.0565 39.041,12.052 39.041,12.0475 C39.027,12.0315 39.012,12.014 39,12 C39.009,12.021 39.035,12.0305 39.04,12.0625" id="Fill-5" fill="#231F20"></path>
                        <g id="Group-9">
                            <mask id="mask-2" fill="white">
                                <use xlink:href="#path-1"></use>
                            </mask>
                            <g id="Clip-8"></g>
                            <path d="M21.6457196,5.04244783 C21.7402882,5.25792609 21.8317392,5.46878696 21.9216314,5.67451739 C22.0260725,5.91154348 22.1507784,6.14446522 22.2874353,6.37020435 C22.5633471,6.82168261 22.919798,7.24699565 23.3521118,7.5815 C23.7802686,7.9201087 24.2733765,8.14738696 24.7405039,8.2859087 C25.2206216,8.42494348 25.644102,8.47676087 26.082651,8.49317826 C26.5243176,8.50497826 26.9914451,8.46342174 27.4564941,8.3166913 C27.9189451,8.17355217 28.3658078,7.9201087 28.7191412,7.60304783 C29.0761118,7.28701304 29.3411118,6.92223913 29.539602,6.56362174 C29.6424843,6.38456957 29.7214647,6.20243913 29.7973275,6.02800435 C29.862798,5.86844783 29.9225529,5.71094348 29.978151,5.55497826 C30.1974255,4.93368261 30.3522686,4.35035217 30.5294549,3.82396957 C30.7097588,3.29348261 30.9269549,2.7163087 31.1270039,2.48954348 C31.3675824,2.2325087 31.3073078,2.34845652 31.3405627,2.3222913 C31.3400431,2.33614348 31.3717392,2.29561304 31.6190725,2.72195217 C31.818602,3.05132609 32.0144941,3.4196913 32.216102,3.82396957 C32.3995235,4.22978696 32.5845039,4.63816957 32.7705235,5.04911739 L33.0656608,5.69503913 C33.1519157,5.87973478 33.2272588,6.06083913 33.3098765,6.26605652 C33.4735529,6.67187391 33.6408667,7.13566522 33.8741706,7.63177826 C34.1105922,8.13507391 34.4171608,8.63836957 34.7845235,9.09138696 C35.5114549,10.0040913 36.5491118,10.7064478 37.5410431,11.1055957 C37.9317882,11.2661783 38.299151,11.4493348 38.4706216,11.5801609 C38.5553176,11.6514739 38.5620725,11.6509609 38.5709059,11.6689174 C38.5797392,11.6904652 38.5864941,11.688413 38.5994843,11.7910217 C38.6633961,11.9885435 38.6280627,12.4313 38.5220627,12.9299783 C38.4924451,13.0649087 38.4623078,13.2024043 38.431651,13.3424652 C38.3802098,13.563587 38.3178569,13.8452478 38.2799255,14.0971522 C38.195749,14.6163522 38.1889941,15.1370913 38.3303275,15.5613783 C38.4597098,15.9851522 38.7642,16.3914826 39.1928765,16.6074739 C39.6158373,16.8157696 40.0559451,16.8527087 40.5397,16.7660043 C41.0218961,16.6726304 41.5477392,16.4391957 41.968102,16.2519348 C42.2460922,16.1205957 42.4492588,16.0169609 42.6680137,15.9056304 L43.3959843,15.7429957 C43.5326412,15.6706565 43.5445922,15.6485957 43.5731706,15.6265348 C43.6022686,15.604987 43.6370824,15.5834391 43.6739745,15.5711261 C43.7477588,15.5362391 43.8340137,15.5854913 43.8147882,15.6773261 L43.7784157,15.7019522 C43.8979255,15.8122565 43.9254647,15.9543696 43.5451118,16.4279087 L43.5440725,16.3745522 C43.4230039,16.5182043 43.2712784,16.6844304 43.1050039,16.8999087 L42.7225725,17.4288565 L42.8051902,17.2313348 C42.3328667,17.9619087 41.7353176,18.7089 41.2510431,19.6775261 C41.0016314,20.1946739 40.7782,20.8472652 40.9143373,21.6404304 C41.028651,22.3951174 41.6215235,23.0672043 42.1432098,23.3678478 C42.1109941,23.2883261 42.0808569,23.2154739 42.0538373,23.1339 C42.317798,23.3227 42.5833176,23.4673783 42.830651,23.5602391 C43.0769451,23.6618217 43.3450627,23.7300565 43.469249,23.7711 C43.7773765,23.864987 44.0262686,23.9660565 44.1717588,24.0584043 C44.3167294,24.1548565 44.370249,24.2118043 44.4372784,24.3190304 C44.4991118,24.431387 44.5547098,24.6114652 44.5874451,24.8269435 C44.6456412,25.2563609 44.649798,25.847387 44.6248569,26.4189174 C44.5952392,27.0089174 44.5230137,27.630213 44.3686902,28.3895174 L44.3385529,28.3397522 C44.2990627,29.4027783 44.3058176,30.3657609 44.3998667,31.2841087 C44.4476706,31.7432826 44.517298,32.1901435 44.6149843,32.6287957 C44.6648667,32.8473522 44.7199451,33.0638565 44.7838569,33.2788217 L44.9709157,33.8698478 C45.3980333,35.2566043 45.5565137,36.6931261 45.7087588,38.6478217 C45.6666706,38.1609435 45.6287392,38.8550913 45.589249,38.8150739 C45.5944451,39.7190565 45.5019549,40.6481783 45.5055922,41.4074826 C45.5133863,42.167813 45.5653471,42.6916304 45.7123961,42.7152304 C45.6360137,44.1071174 45.5585922,43.8393087 45.4416804,44.0337522 C45.5081902,44.0317 45.5398863,44.3610739 45.6001608,44.8320478 C45.6651118,45.3030217 45.7742294,45.9140565 45.9316706,46.4732739 C45.8708765,46.3049957 45.8090431,46.1356913 45.7591608,45.9617696 C45.9997392,47.0591696 46.446602,48.0826913 46.9807588,49.0179696 C46.9527,48.7922304 46.9225627,48.5716217 46.9054157,48.3463957 C47.2582294,49.116987 47.2660235,49.236013 47.2603078,49.3535 C47.2634255,49.4643174 47.2634255,49.5746217 47.7300333,50.2374739 L47.8890333,50.1112652 C48.4933373,51.076813 48.8892784,51.867413 49.2815824,52.6626304 C49.4748765,53.059213 49.6681706,53.4542565 49.8713373,53.8708478 C50.0750235,54.2710217 50.2885824,54.6906913 50.5239647,55.1529435 C50.6949157,55.4833435 50.8128667,55.9815087 50.8533961,56.4011783 C50.8783373,56.5648391 50.8149451,56.7202913 50.6678961,56.7833957 C50.5904745,56.8136652 50.5364353,56.8193087 50.4247196,56.8090478 C50.1940137,56.7864739 49.9440824,56.7454304 49.711298,56.6895087 C49.4764353,56.6330739 49.2467686,56.5612478 49.0332098,56.4730043 C48.8279647,56.3904043 48.6112882,56.2718913 48.381102,56.139013 C47.9311216,55.8753087 47.4811412,55.5536304 47.0134941,55.2119435 C46.769798,55.0354565 46.5650725,54.8759 46.2720137,54.6773522 C45.9898667,54.4829087 45.6853765,54.3095 45.3616608,54.1648217 C44.7189059,53.8708478 43.9898961,53.6989783 43.2692,53.7005174 C42.5485039,53.6933348 41.8470333,53.8467348 41.2193471,54.0894043 C40.0850431,54.5973174 39.0577784,55.1185696 37.9821902,55.6223783 C37.0526118,56.1010478 36.0892588,56.3462826 35.1513667,56.2303348 C34.2160725,56.1241348 33.3327392,55.6680391 32.5683961,55.0426391 L32.2846902,54.7999696 L31.992151,54.5183087 L31.4127882,53.9555 C31.0184059,53.5768739 30.6759843,53.2156913 30.2556216,52.8257783 L30.033749,52.4415087 C30.0301118,52.3014478 29.4465922,51.9459087 28.7898078,51.6827174 C28.1382196,51.4005435 27.4086902,51.277413 27.2564451,51.1250391 C26.8714157,51.0547522 26.4817098,51.0142217 26.0930431,51.0131957 C25.7750431,50.9398304 25.0725333,50.9039174 25.661249,50.8597957 C25.3863765,50.8449174 25.1811314,50.8639 25.0127784,50.8803174 C24.8449451,50.8951957 24.7160824,50.9111 24.6007294,50.9423957 C24.3669059,50.9983174 24.1699745,51.0470565 23.8124843,51.1835261 C23.620749,51.2045609 23.435249,51.2435522 23.2502686,51.2871609 C23.0632098,51.3261522 22.8771902,51.3723261 22.6984451,51.4318391 C21.7371706,51.8222652 20.9135922,52.4035435 20.2417392,52.9427522 C19.9159451,53.200813 19.592749,53.4568217 19.2705922,53.7123174 C19.1141902,53.8318565 18.9598667,53.9457522 18.8055431,54.0509261 L18.3030824,54.3844043 C17.6343471,54.8148478 16.9027392,55.2319522 16.1965922,55.5336217 C15.5813765,55.7901435 14.9214745,55.8065609 14.2439059,55.513613 C14.0464549,55.4161348 13.842249,55.2904391 13.6349255,55.1390913 C13.3844745,54.9554217 13.1231118,54.7640565 12.8523961,54.5649957 C12.567651,54.3618304 12.3156412,54.1699522 11.975298,53.9437 C11.6385922,53.7184739 11.2639549,53.4983783 10.8248863,53.3157348 C10.3899745,53.1330913 9.88075882,52.9889261 9.33153333,52.9622478 C8.78282745,52.9324913 8.22113137,53.0315087 7.73218039,53.2059435 C7.23959216,53.3803783 6.80831765,53.6174043 6.41289608,53.8693087 L6.12139608,54.0627261 L5.86990588,54.2505 L5.36640588,54.6270739 C4.6981902,55.1319087 4.02685686,55.6393087 3.36487647,56.139013 C3.04583725,56.3775783 2.7439451,56.5915174 2.45140588,56.7623609 L2.32410196,56.835213 C2.29760196,56.8511174 2.26798431,56.8634304 2.23888627,56.8767696 C2.18017059,56.9008826 2.11573922,56.9173 2.05078824,56.9157609 C1.9162098,56.9152478 1.80709216,56.8193087 1.75097451,56.7059261 C1.71875882,56.6479522 1.69953333,56.5920304 1.67822941,56.5212304 C1.64601373,56.3775783 1.61431765,56.2303348 1.5982098,56.0856565 C1.52130784,55.5069435 1.58106275,54.9569609 1.72967059,54.462387 C1.77643529,54.2869261 1.83930784,54.1130043 1.91257255,53.9395957 C1.98635686,53.7682391 2.09079804,53.5404478 2.1677,53.3911522 C2.20926863,53.3116304 2.25031765,53.2403174 2.29084706,53.1802913 L2.48414118,52.9068391 C2.62339608,52.7057261 2.75589608,52.4989696 2.87800392,52.2865696 C3.3731902,51.4385087 3.7244451,50.5165696 3.98788627,49.5905261 C4.26327843,48.6670478 4.40980784,47.7040652 4.6457098,46.8873 C4.76781765,46.4671174 4.90863137,46.0546304 5.07750392,45.6616391 C5.24221961,45.2599261 5.4407098,44.9315783 5.68180784,44.4416217 C6.12711176,43.5263522 6.45654314,42.5377174 6.63113137,41.5218913 C6.7189451,41.0139783 6.76986667,40.4999087 6.78389608,39.9884043 C6.7916902,39.7323957 6.78961176,39.476387 6.7787,39.2224304 L6.74804314,38.533413 C6.68153333,36.7541783 6.75427843,35.028813 7.02707255,33.3932304 C7.09825882,33.1885261 7.1762,32.6344391 7.1497,32.6303348 C7.29415098,32.1455087 7.44691569,31.6627348 7.64228824,31.1963783 C7.73373922,30.956787 7.84025882,30.7407957 7.94573922,30.4924826 C8.07512157,30.2108217 8.18423922,29.9158217 8.27672941,29.6141522 C8.65188627,28.4018304 8.59265098,27.0386739 8.18735686,25.8699609 C8.21073922,25.8940739 7.91923922,25.2107 7.85065098,24.8613174 C7.82882745,24.7299783 7.86000392,24.584787 8.04550392,24.4611435 C8.17436667,24.3621261 8.40663137,24.2164217 8.65032745,24.0830304 C8.92831765,23.9255261 9.26918039,23.7182565 9.57367059,23.4643 C9.88439608,23.2103435 10.1857686,22.885587 10.4346608,22.4895174 C10.6845922,22.0939609 10.8482686,21.5916913 10.8721706,21.0873696 C10.898151,20.5799696 10.7848765,20.0864217 10.6040529,19.6585435 C10.4175137,19.2322043 10.1670627,18.8705087 9.90102353,18.5406217 C9.76488627,18.3928652 9.61887647,18.2153522 9.48637647,18.0994043 L9.08471961,17.7356565 C8.81816078,17.4945261 8.55368039,17.2564739 8.29439608,17.0225261 C8.03667059,16.786013 7.79557255,16.5715609 7.58253333,16.3632652 C7.36689608,16.1524043 7.1829549,15.9548826 7.06084706,15.7799348 C6.8052,15.3992565 6.78077843,15.1858304 6.84728824,14.9211 C6.9044451,14.6604739 7.12475882,14.5081 7.31077843,14.4465348 C7.35858235,14.4275522 7.40274902,14.413187 7.45003333,14.3993348 C7.51446471,14.3839435 7.5737,14.3695783 7.62877843,14.3567522 C7.74465098,14.330587 7.84233725,14.3049348 7.91508235,14.2772304 C8.05901373,14.2228478 8.08187647,14.1648739 7.97743529,14.1058739 C7.86831765,14.0514913 7.62929804,13.9694043 7.25258235,13.9340043 C7.06396471,13.9232304 6.80935686,13.9268217 6.55215098,14.0632913 C6.29650392,14.1982217 6.06943529,14.472187 5.93953333,14.8518391 C5.80183725,15.2263609 5.83041569,15.7414565 6.03462157,16.1990913 C6.23467059,16.6690391 6.56721961,17.0892217 6.92367059,17.5150478 C7.28479804,17.941387 7.66307255,18.3692652 8.08863137,18.8428043 C8.19411176,18.9602913 8.30167059,19.0803435 8.41130784,19.2029609 C8.50379804,19.3245522 8.59317059,19.4420391 8.67474902,19.5672217 C8.83738627,19.8160478 8.96313137,20.0828304 9.03951373,20.3449957 C9.01613137,20.3147261 8.97871961,20.2849696 8.94806275,20.2562391 C9.18552353,20.8713783 9.0706902,21.2838652 8.75580784,21.6727522 C8.59317059,21.8630913 8.39779804,22.0457348 8.15929804,22.1965696 C8.0507,22.2781435 7.91612157,22.3417609 7.80076863,22.4161522 C7.64748431,22.5018304 7.48900392,22.5900739 7.33052353,22.6880652 C7.17256275,22.7855435 7.01460196,22.8902043 6.83273922,23.0333435 C6.64308235,23.1857174 6.44615098,23.3791348 6.3084549,23.5869174 C6.00916078,24.0024826 5.93433725,24.5237348 6.00812157,25.0039435 C6.02786667,25.1219435 6.05488627,25.246613 6.08346471,25.3543522 L6.16971961,25.6190826 C6.23155294,25.7837696 6.29754314,25.9423 6.36717059,26.0895435 C6.49291569,26.3599174 6.5999549,26.580013 6.69400392,26.8391 C6.58852353,27.039187 6.71998431,27.6338043 6.67321961,28.2812652 C6.65347451,28.6039696 6.59735686,28.940013 6.50954314,29.2329609 C6.46849412,29.3796913 6.41601373,29.5146217 6.36509216,29.6326217 C6.33755294,29.6905957 6.31157255,29.7454913 6.28715098,29.7957696 C6.25597451,29.8547696 6.22739608,29.9091522 6.20141569,29.9573783 L6.21232745,29.8717 C5.84704314,30.9583261 5.44122941,32.0516217 5.15232745,33.1782652 C4.86446471,34.3008043 4.68883725,35.4479696 4.76054314,36.5320304 C4.74287647,36.4473783 4.65142549,36.3986391 4.67896471,35.8984217 C4.5921902,37.4780826 4.85251373,39.6503087 4.66025882,39.6764739 C4.69247451,40.4932391 4.60673922,41.389013 4.37031765,42.2745261 C4.25288627,42.7177957 4.09752353,43.1574739 3.91306275,43.5863783 C3.86629804,43.6930913 3.82057255,43.8008304 3.76913137,43.9054913 L3.60285686,44.2543609 C3.48230784,44.5124217 3.37578824,44.7720217 3.28018039,45.0300826 C3.08948431,45.5472304 2.94555294,46.0592478 2.83539608,46.5527957 C2.72264118,47.0427522 2.65093529,47.5373261 2.59118039,47.9308304 C2.46647451,48.7501609 2.32981765,49.4386652 2.21966078,49.9701783 L2.2207,49.8152391 C2.11625882,50.4257609 1.96089608,50.7931 1.77175882,51.1532565 C1.67511176,51.3333348 1.56807255,51.5108478 1.44232745,51.7150391 C1.37737647,51.8150826 1.30722941,51.9223087 1.23084706,52.0392826 C1.19239608,52.0977696 1.15186667,52.1583087 1.10977843,52.2219261 C1.04846471,52.3076043 0.981954902,52.4117522 0.928954902,52.5102565 C0.855690196,52.5841348 0.786062745,52.6862304 0.787621569,52.6641696 C0.713837255,52.8463 0.633298039,53.0448478 0.546523529,53.2577609 C0.45247451,53.4814478 0.359464706,53.7246304 0.279964706,53.9847435 C0.116807843,54.5024043 0.00769019608,55.0893261 0.000935294118,55.6706043 C-0.00374117647,55.960987 0.0165235294,56.2477783 0.054454902,56.5217435 C0.0757588235,56.6684739 0.0923862745,56.7721087 0.132396078,56.9470565 C0.168768627,57.1189261 0.226964706,57.2779696 0.282562745,57.4334217 C0.520543137,58.0501 0.996503922,58.4359087 1.40751373,58.5282565 L1.47818039,58.6657522 C1.82891569,58.7504043 2.20147451,58.7155174 2.55376863,58.6093174 C2.73147451,58.5575 2.90242549,58.4841348 3.07129804,58.4056391 C3.25368039,58.3168826 3.33941569,58.2645522 3.46412157,58.1927261 C3.92397451,57.919787 4.33602353,57.6170913 4.71429804,57.3349174 C4.42435686,57.5370565 4.1151902,57.7494565 3.78471961,57.9521087 C3.97385686,57.4785696 5.69999412,56.8141783 7.26453333,55.4484565 C8.03199412,54.9749174 8.6996902,54.4875261 9.58873922,54.4983 C10.0304059,54.4998391 10.5042882,54.6316913 10.9485529,54.8374217 C11.3917784,55.0436652 11.8173373,55.336613 12.2169157,55.6521348 C13.1038863,56.0784739 11.3746314,55.3668826 12.6393569,56.0928391 C12.5858373,56.2554739 12.0205039,55.7952739 12.2558863,56.1149 C12.408651,56.2077609 12.5520627,56.2995957 12.6892392,56.3919435 C12.8357686,56.4873696 12.9885333,56.5853609 13.1392196,56.6730913 C13.4431902,56.8495783 13.7539157,57.0050304 14.1004941,57.1250826 C14.779102,57.3641609 15.6655529,57.4652304 16.6335824,57.0748043 L16.757249,57.1661261 C17.3532392,56.8716391 17.8271216,56.6084478 18.3327,56.3421783 C18.8247686,56.078987 19.2950137,55.8224652 19.734602,55.5669696 C20.6574255,55.0216043 21.3573373,54.4629 21.8790235,53.9508826 C22.760798,53.2690478 23.141151,53.2156913 23.5012392,53.1387348 C23.8706804,53.0879435 24.1995922,52.9324913 25.220102,52.7180391 C25.3567588,52.7313783 25.490298,52.7601087 25.6217588,52.7949957 C25.7532196,52.822187 25.8815627,52.8581 26.0062686,52.9068391 C26.2182686,52.9309522 26.3606412,52.9586565 26.4754745,52.9653261 C26.588749,52.9673783 26.6744843,52.9689174 26.7628176,52.9704565 C26.9374059,52.9750739 27.1343373,52.9837957 27.5734059,53.2341609 C27.5209255,53.2752043 27.7989157,53.4209087 28.0000039,53.5768739 C28.2047294,53.7282217 28.3491804,53.8400652 28.0717098,53.730787 C28.5388373,54.0796565 28.9290627,54.4126217 29.4663373,54.9066826 C29.9817882,55.3653435 30.5086706,55.820413 31.0724451,56.2995957 C31.7022098,56.798787 32.4244647,57.2697609 33.2818176,57.6319696 C33.7136118,57.8074304 34.1760627,57.9526217 34.6691706,58.0531783 C35.1648765,58.1445 35.6855235,58.1896478 36.2217588,58.179387 C36.6722588,58.0311174 37.398151,57.861813 38.036749,57.5888739 C38.3516314,57.4683087 38.6737882,57.2907957 38.8883863,57.1820304 C39.1087,57.0645435 39.2900431,56.9562913 39.3981216,56.8624043 C39.5233471,56.9070391 42.5230431,55.4269087 40.8592588,56.4217 C40.7158471,56.5063522 40.4503275,56.6258913 40.4539647,56.5848478 L40.2980824,56.7957087 C40.7610529,56.6459 41.1860922,56.4724913 41.5929451,56.2821522 C41.809102,56.1764652 41.9707,56.1066913 42.1307392,56.0471783 C42.2933765,55.985613 42.4539353,55.9281522 42.6139745,55.8876217 C43.2494549,55.7111348 43.917151,55.7070304 44.5895235,56.068213 C44.2128078,55.8163087 43.6381216,55.7101087 44.0397784,55.7224217 C44.4892392,55.8594043 44.8997294,56.0902739 45.3211314,56.4181087 C45.1938275,56.3642391 45.1028961,56.3493609 44.9953373,56.314987 C45.1304353,56.4140043 45.3029451,56.5479087 45.4827294,56.6920739 L46.0241608,57.1194391 C46.3946412,57.4077696 46.7864255,57.7007174 47.2171804,57.9751957 C47.1200137,57.8648913 47.0275235,57.7540739 46.938151,57.6427435 C47.2317294,57.8561696 47.4878961,58.0393261 47.7341902,58.2009348 C47.9976314,58.3733174 48.2548373,58.5123522 48.5182784,58.6293261 C48.783798,58.7442478 49.0623078,58.8391609 49.388102,58.9053435 C49.5502196,58.9392043 49.7248078,58.9643435 49.9149843,58.9802478 C50.0168275,58.9889696 50.094249,58.9915348 50.2272686,58.9971783 C50.3670431,59.0033348 50.532798,58.9997435 50.7032294,58.9858913 C51.3044157,58.8761 50.7229745,58.9171435 50.3530137,58.8453174 C50.1597196,58.8114565 50.0874941,58.7827261 50.1129549,58.7724652 C50.1358176,58.7668217 50.1607588,58.7657957 50.2989745,58.7719522 C50.4195235,58.7750304 50.638798,58.7899087 50.9225039,58.7514304 C51.6515137,58.7109 52.467298,58.2342826 52.7821804,57.3831435 C52.8570039,57.1738217 52.9157196,56.9506478 52.9323471,56.7167 C52.9557294,56.4899348 52.9370235,56.2159696 52.9219549,56.0594913 C52.8938961,55.7321696 52.8429745,55.3940739 52.7520431,55.0452043 C52.6616314,54.6989 52.5312098,54.3341261 52.3353176,53.9791 L51.8759843,53.2013261 C51.5642196,52.6857174 51.2550529,52.174213 50.9593961,51.6842565 C50.9479647,51.9428304 50.6206118,51.4205522 50.2537686,50.9034043 L50.3228765,50.7725783 C49.5928275,49.7983087 49.5315137,49.5694913 49.4774745,49.3463174 C49.4338275,49.1313522 49.3579647,48.9266478 48.757298,48.0159957 L48.9308471,48.1391261 C48.7552196,48.0175348 48.5894647,47.890813 48.4185137,47.7605 C47.8713667,46.9360391 47.8750039,46.6523261 47.8323961,46.3732304 C47.8183667,46.2306043 47.7949843,46.0859261 47.735749,45.8550565 C47.6744353,45.6236739 47.5668765,45.3107174 47.4338569,44.8038304 C47.4795824,45.2091348 47.4421706,45.3153348 47.3502,45.1927174 C47.2629059,45.0711261 47.1522294,44.7043 47.1813275,44.1820217 C47.2218569,44.2702652 47.2608275,44.3569696 47.3086314,44.4416217 C47.2707,43.8911261 47.2509549,43.6453783 47.2935627,43.2359696 C47.3413667,43.6130565 47.4645137,43.442213 47.4915333,42.520787 L47.6152,43.1467 L47.4764647,41.3905522 C47.5980529,40.7123087 47.6780725,39.7944739 47.6952196,38.9761696 C47.7217196,38.1563261 47.692102,37.4313957 47.7648471,37.1266478 C47.7648471,37.1266478 47.7539353,36.3370739 47.5964941,35.453613 C47.4530824,34.5696391 47.1340431,33.6164043 46.9126902,33.3039609 C47.0794843,33.589213 47.0233667,33.3116565 46.9604941,33.011013 C46.9012588,32.7211435 46.8747588,32.5164391 47.0041412,32.6636826 C46.8295529,32.3892043 46.5894941,31.782787 46.4938863,31.1065957 C46.3915235,30.4339957 46.4263373,29.7095783 46.5338961,29.3042739 L46.5380529,29.4612652 C46.5629941,29.2714391 46.5874157,29.0857174 46.6113176,28.9030739 C46.6398961,28.7076043 46.6679549,28.5157261 46.6960137,28.3269261 C46.7521314,27.9185435 46.791102,27.5199087 46.8155235,27.1289696 C46.8394255,26.7380304 46.8503373,26.3553 46.8477392,25.9777 C46.844102,25.5954826 46.8373471,25.2471261 46.7968176,24.8110391 C46.7510922,24.3893174 46.6715922,23.9142391 46.4237392,23.4011957 C46.1774451,22.8861 45.6936902,22.4125609 45.2411118,22.1739957 C44.7854157,21.917987 44.3640137,21.7845957 43.9639157,21.6671087 C43.8470039,21.6342739 43.7940039,21.6147783 43.7363275,21.5952826 C43.6729353,21.5773261 43.6214941,21.5516739 43.5690137,21.528587 C43.4614549,21.4819 43.3845529,21.4244391 43.3222,21.3741609 C43.3008961,21.4485522 43.1632,21.3772391 43.1185137,21.3346565 C43.059798,21.2833522 43.0192686,21.1961348 42.9382098,21.2761696 C42.8779353,21.1771522 42.8935235,20.9580826 42.9870529,20.715413 C43.0733078,20.4876217 43.2562098,20.1900565 43.4349549,19.9340478 C43.801798,19.4107435 44.2299549,18.932587 44.6097882,18.4549435 L44.7500824,18.2764043 L44.8482882,18.1604565 C44.9324647,18.0665696 45.0145627,17.9757609 45.0935431,17.8880304 C45.2702098,17.6889696 45.4687,17.4601522 45.6308176,17.1610478 C45.7103176,17.0153435 45.7856608,16.8393696 45.825151,16.6741696 C45.8500922,16.585413 45.8563275,16.5217957 45.8662,16.4571522 C45.8734745,16.3935348 45.8880235,16.2934913 45.8890627,16.2252565 C45.904651,15.923587 45.8630824,15.6665522 45.7877392,15.4721087 C45.7425333,14.4275522 45.4151804,13.8970652 45.0145627,13.6282304 C44.6056314,13.3901783 44.261651,13.3296391 43.695798,13.4291696 C43.8703863,13.3794043 44.0454941,13.3409261 44.2169647,13.3265609 C43.7300922,13.3481087 43.1907392,13.541013 42.830651,13.6959522 C42.551102,13.8129261 42.2949353,13.9201522 42.0564353,14.0201957 C41.6781608,14.1828304 41.3549647,14.3218652 41.0483961,14.4532043 C40.9143373,14.5055348 40.7859941,14.5701783 40.6373863,14.5758217 C40.4783863,14.5937783 40.3495235,14.4265261 40.3765431,14.2397783 C40.3542,14.0781696 40.2928863,13.9812043 40.2695039,13.7811174 C40.2731412,13.6205348 40.3017196,13.3794043 40.3453667,13.0977435 C40.3843373,12.8037696 40.4685137,12.466187 40.5048863,11.9372391 C40.5417784,12.278413 40.5604843,12.2342913 40.5895824,12.0106043 C40.5927,11.8874739 40.6067294,11.7279174 40.5786706,11.5170565 C40.5620431,11.3149174 40.4898176,11.0517261 40.3884941,10.8300913 C40.5293078,11.1168826 40.5667196,11.3246652 40.5849059,11.2846478 C40.578151,11.2584826 40.633749,10.9316739 40.2383275,10.3519348 C40.0912784,10.2113609 39.8735627,10.0389783 39.679749,9.92097826 C39.677151,9.90866522 39.6449353,9.87583043 39.6698765,9.88096087 C39.0790824,9.49976957 38.8592882,9.4659087 38.8239549,9.45205652 C38.7922588,9.45462174 38.9580137,9.54132609 39.212102,9.69216087 C39.1783275,9.69472609 39.2100235,9.72807391 39.3534353,9.85582174 C39.0853176,9.64803913 38.7517294,9.46488261 38.4139843,9.30943043 C38.0850725,9.15756957 37.8195529,9.02725652 37.5623471,8.86308261 C37.0609255,8.54858696 36.7408471,8.19202174 36.7673471,8.0889 C36.2669647,7.58457826 35.9255824,7.03203043 35.6455137,6.40560435 C35.5000235,6.07315217 35.3581706,5.74942174 35.2183961,5.43184783 C35.1440922,5.26664783 35.0656314,5.09939565 34.9814549,4.93368261 C34.9035137,4.7813087 34.8255725,4.63047391 34.7486706,4.48066522 C34.4436608,3.88399565 34.1480039,3.28476087 33.8185725,2.68757826 C33.6533373,2.38847391 33.4803078,2.09039565 33.2927294,1.79334348 C33.1924451,1.63891739 33.1155431,1.51065652 32.984602,1.33622174 C32.8624941,1.16332609 32.7081706,1.00633478 32.522151,0.859091304 C32.3797784,0.696969565 32.5018863,0.711334783 32.7689647,0.900134783 C32.8910725,0.995047826 33.0370824,1.13305652 33.1721804,1.31056957 C33.2937686,1.46756087 33.4013275,1.62557826 33.5177196,1.80822174 C33.4288667,1.65943913 33.3368961,1.51168261 33.2412882,1.36546522 C33.1326902,1.19923913 32.9882392,1.01403043 32.8245627,0.856013043 C32.4712294,0.524073913 31.9999451,0.292178261 31.5099549,0.260882609 C31.5187882,0.195213043 31.9874745,0.185465217 32.4675922,0.483030435 C32.7144059,0.62103913 32.931602,0.841134783 33.1009941,1.04019565 C33.1737392,1.14023913 33.2631118,1.2602913 33.3119549,1.33827391 C33.3633961,1.41779565 33.4122392,1.4927 33.4564059,1.56042174 C33.3394941,1.31005652 33.1285333,0.918604348 32.7679255,0.614882609 C32.4093961,0.30243913 31.9349941,0.102865217 31.4450039,0.0885 C30.958651,0.0633608696 30.4515137,0.225995652 30.0664843,0.498421739 C29.6887294,0.756482609 29.4117784,1.10073478 29.2080922,1.44344783 C29.009602,1.78564783 28.8791804,2.12887391 28.7685039,2.45619565 C28.6614647,2.77992609 28.5648176,3.09903913 28.4718078,3.4314913 C28.2889059,4.08254348 28.1267882,4.7176913 27.8591902,5.27588261 C27.8352882,5.43903043 27.807749,5.58627391 27.7682588,5.7371087 L27.6861608,5.8351 C27.7495529,5.86434348 27.5391118,6.30556087 27.2782686,6.47743043 C27.1234255,6.50462174 27.0938078,6.43536087 27.000798,6.42253478 C26.8999941,6.40098696 26.7778863,6.45947391 26.2676314,6.50205652 C26.0686216,6.48563913 25.7849157,6.4605 25.511602,6.41227391 C25.2382882,6.3625087 24.9670529,6.28042174 24.7108863,6.14856957 C24.2006314,5.88845652 23.7657196,5.3359087 23.4820137,4.74077826 C23.7568863,5.37592609 23.6041216,5.1979 23.4368078,4.95625652 C23.1624549,4.35445652 23.1104941,3.9317087 22.8267882,3.4715087 L22.9437,3.33965652 C22.9338275,3.49818696 22.702602,3.1010913 22.4079843,2.65115217 C22.2567784,2.42233478 22.1066118,2.19762174 21.939298,1.99137826 C21.8655137,1.89441304 21.7761412,1.79334348 21.6924843,1.71176957 C21.6150627,1.63122174 21.551151,1.57940435 21.5127,1.55785652 C21.3381118,1.32544783 21.674298,1.5517 21.9538471,1.89903043 C22.2120922,2.20942174 22.4235725,2.54905652 22.5139843,2.61164783 C22.3269255,2.29304783 22.1793569,2.06063913 22.001651,1.82515217 C21.9231902,1.71536087 21.7974451,1.57991739 21.7085922,1.48346522 C21.6051902,1.38957826 21.5147784,1.3039 21.4285235,1.23258696 C21.0725922,0.959647826 20.8226608,0.887821739 20.5805235,0.831386957 C20.3383863,0.786752174 20.0702686,0.758021739 19.6566608,0.910908696 C19.4493373,0.984786957 19.2160333,1.12228261 18.9557098,1.34494348 C18.6964255,1.58145652 18.4402588,1.91596087 18.2573569,2.22019565 C17.593298,3.62234348 18.5228765,2.05191739 18.2843765,2.76043043 C18.1284941,3.05543043 17.9939157,3.35966522 17.8754451,3.67262174 C17.752298,3.98916957 17.6696804,4.3129 17.5621216,4.59148261 C17.3423275,5.1707087 17.0092588,5.73762174 16.5171902,6.23322174 C16.6502098,6.1537 16.7801118,6.0675087 16.9094941,5.9767 C16.5826608,6.45639565 16.2215333,6.84733478 15.8541706,7.17003913 C15.4873275,7.48607391 15.1064549,7.76824783 14.7759843,8.04836957 C14.1062098,8.60707391 13.5112588,9.10318696 12.8716216,9.63572609 C12.4912686,10.1000304 12.2387392,10.6443696 12.1789843,11.1753696 C12.1124745,11.700213 12.2247098,12.2091522 12.3644843,12.6000913 C12.4850333,12.9879522 12.570249,13.469187 12.3088863,13.7862478 C12.0501216,14.0915087 11.6567784,14.1633348 11.3091608,14.2146391 C9.90206275,14.3182739 8.9979451,14.283387 8.38376863,14.3413609 C7.17568039,14.4383261 7.24322941,14.6112217 7.88546471,14.7923261 C8.50899412,14.9652217 9.68538627,15.2094304 10.8425529,15.3161435 C10.9438765,15.322813 11.0270137,15.3310217 11.1423667,15.3325609 C11.2639549,15.3325609 11.3834647,15.3325609 11.5019353,15.3330739 C11.7352392,15.3171696 11.9602294,15.2930565 12.1649549,15.2412391 C12.5770039,15.1442739 12.9053961,14.9600913 13.1397392,14.7528217 C13.3823961,14.5501696 13.5107392,14.3228913 13.5980333,14.1720565 C13.6733765,14.0135261 13.7081902,13.9222043 13.7081902,13.9222043 C13.8401706,13.5543522 13.8812196,13.1546913 13.839651,12.7463087 C13.7876902,12.3153522 13.697798,11.971613 13.707151,11.9151783 C13.6879255,11.6735348 13.7211804,11.4960217 13.7798961,11.3328739 C13.8443275,11.1707522 13.948249,11.0065783 14.1041314,10.8311174 C14.2319549,10.6884913 14.5473569,10.4047783 14.7993667,10.1687783 C15.3205333,9.68754348 15.8214353,9.23863043 16.3275333,8.83024783 L16.7608863,8.48086522 C16.9183275,8.34696087 17.0731706,8.20895217 17.2238569,8.06427391 C17.5241902,7.7738913 17.8084157,7.45785652 18.0671804,7.11616957 C18.5867882,6.4333087 18.9988373,5.64578696 19.2695529,4.80644783 C19.3719157,4.47502174 19.4737588,4.1984913 19.6156118,3.88656087 C19.6847196,3.7347 19.7595431,3.58181304 19.8416412,3.42943913 L19.9684255,3.20113478 L20.0817,3.0149 C20.1211902,2.95333478 20.1315824,2.93127391 20.1487294,2.90921304 C20.1669157,2.88561304 20.1913373,2.86201304 20.2230333,2.84867391 C20.2874647,2.81943043 20.3628078,2.84816087 20.4225627,2.89895217 C20.4386706,2.91383043 20.4417882,2.91023913 20.5010235,2.99078696 C20.544151,3.04260435 20.6028667,3.12571739 20.6615824,3.21396087 C20.7769353,3.38531739 20.8891706,3.56796087 20.9988078,3.76137826 C21.2191216,4.14821304 21.4295627,4.57711739 21.6457196,5.04244783" id="Fill-7" fill="#D8D8D8" mask="url(#mask-2)"></path>
                        </g>
                    </g>
                </g>
            </g>
        </g>
    </g>
</svg>