<svg width="35" height="49" xmlns="http://www.w3.org/2000/svg" xmlns:xlink="http://www.w3.org/1999/xlink"><defs><path id="a" d="M0 .09h34.732V49H0z"/><path id="c" d="M0 49h35V0H0z"/></defs><g fill="none" fill-rule="evenodd"><mask id="b" fill="#fff"><use xlink:href="#a"/></mask><path d="M24.724 17.184c0-1.976.138-3.903-.03-5.805-.31-3.498-3.416-6.239-7.033-6.4-3.528-.156-6.94 2.307-7.492 5.728-.336 2.092-.174 4.26-.233 6.393 0 .026.038.053.061.084h14.727zM4.958 22.115v.515c0 5.468-.002 10.936.002 16.405.002 2.934 2.175 5.072 5.155 5.075 4.823.004 9.646.003 14.47 0 3.014-.002 5.183-2.133 5.185-5.098.003-5.451 0-10.903 0-16.354v-.543H4.959zm24.81-4.91c.84 0 1.627-.001 2.414.001 1.482.005 2.545 1.04 2.545 2.494.003 6.556.01 13.11-.002 19.664-.009 4.763-3.765 8.933-8.566 9.537-.46.058-.925.093-1.388.094-4.926.006-9.852.006-14.777.003-4.882-.003-8.965-3.347-9.852-8.08a8.598 8.598 0 01-.135-1.568C-.003 32.813 0 26.275.002 19.737c0-1.493 1.049-2.525 2.561-2.53.774-.004 1.547-.001 2.4-.001v-.557c0-1.512-.006-3.023.001-4.534C4.991 6.602 9.104 1.58 14.56.394c6.858-1.492 13.43 2.634 14.943 9.416.19.854.231 1.748.253 2.626.04 1.561.011 3.123.011 4.77z" fill="#6E7070" mask="url(#b)"/><mask id="d" fill="#fff"><use xlink:href="#c"/></mask><path fill="#6E7070" mask="url(#d)" d="M15 36h5v-7h-5z"/></g></svg>