<svg class="logo-mobile" viewBox="0 0 214 161" width="77" height="58" xmlns="http://www.w3.org/2000/svg">
	<g fill-rule="nonzero" fill="none">
		<path d="M17.74.81h1.64v7.85h4.91v1.5h-6.56V.81h.01zm10.4 0h6.93v1.47h-5.29v2.43h4.69v1.47h-4.69v2.51h5.35v1.47h-7V.81h.01zM42.52.74h1.52l4.11 9.41h-1.74l-.95-2.26h-4.42l-.96 2.26H38.4L42.52.74zm2.35 5.7L43.25 2.7l-1.6 3.74h3.22zm8.11-4.11h-2.96V.81h7.58v1.52h-2.96v7.82h-1.66V2.33zM61.47.81h1.64V4.7h4.46V.81h1.64v9.35h-1.64V6.22h-4.46v3.94h-1.64V.81zm12.27 0h6.93v1.47h-5.29v2.43h4.69v1.47h-4.69v2.51h5.35v1.47h-7V.81h.01zm11.08 0h4.17c1.17 0 2.1.35 2.7.93.49.51.77 1.2.77 2.02v.03c0 1.54-.92 2.46-2.23 2.83l2.52 3.54h-1.94l-2.3-3.26h-2.06v3.26h-1.64V.81h.01zm4.05 4.63c1.17 0 1.92-.61 1.92-1.56v-.03c0-1-.72-1.55-1.94-1.55h-2.39v3.14h2.41zm13.25 3.35l.99-1.17c.89.77 1.79 1.21 2.95 1.21 1.01 0 1.66-.47 1.66-1.17v-.03c0-.67-.37-1.03-2.11-1.43-1.99-.48-3.11-1.07-3.11-2.79v-.03c0-1.6 1.34-2.71 3.19-2.71 1.36 0 2.44.41 3.39 1.17l-.88 1.24c-.84-.63-1.68-.96-2.54-.96-.96 0-1.52.49-1.52 1.11v.03c0 .72.43 1.04 2.22 1.47 1.98.48 3 1.19 3 2.74v.03c0 1.75-1.38 2.79-3.34 2.79-1.43 0-2.77-.5-3.9-1.5zM113.51.81h1.64v9.35h-1.64V.81zm6.28 0h1.52l5.01 6.46V.81h1.62v9.35h-1.38l-5.15-6.65v6.65h-1.62V.81zm12.26 4.7v-.03c0-2.66 1.99-4.83 4.82-4.83 1.72 0 2.76.6 3.66 1.46l-1.05 1.21c-.75-.69-1.55-1.16-2.62-1.16-1.79 0-3.08 1.47-3.08 3.3v.03c0 1.83 1.29 3.32 3.08 3.32 1.15 0 1.88-.47 2.68-1.21l1.05 1.07c-.97 1.01-2.04 1.66-3.79 1.66-2.72-.02-4.75-2.14-4.75-4.82zm12.4-4.7h6.93v1.47h-5.29v2.43h4.69v1.47h-4.69v2.51h5.35v1.47h-7V.81h.01zm18.4 1.6l-1.68.47-.35-1.34 2.51-.8h1.15v9.41h-1.63V2.41zm6.04 6.78l.89-1.25c.71.6 1.34.88 2.14.88 1.38 0 2.2-1.22 2.26-2.94-.47.56-1.19.99-2.19.99-1.99 0-3.31-1.16-3.31-2.96v-.03c0-1.83 1.42-3.23 3.48-3.23 1.17 0 1.94.33 2.59.99.69.69 1.13 1.72 1.13 3.56v.03c0 3-1.5 5.09-4 5.09-1.29-.01-2.2-.47-2.99-1.13zm5.24-5.38v-.03c0-.97-.76-1.72-1.95-1.72-1.16 0-1.86.77-1.86 1.74v.03c0 .97.75 1.67 1.91 1.67 1.19-.01 1.9-.78 1.9-1.69zm5.1 4.86l1.15-1.07c.67.79 1.42 1.23 2.46 1.23.92 0 1.62-.56 1.62-1.42v-.03c0-.92-.84-1.44-2.15-1.44h-.76l-.27-1.03 2.52-2.68h-4.05V.8h6.18v1.23l-2.6 2.67c1.42.19 2.75.89 2.75 2.63v.03c0 1.72-1.34 2.95-3.27 2.95-1.63 0-2.79-.68-3.58-1.64zm10.39 0l1.15-1.07c.67.79 1.42 1.23 2.46 1.23.92 0 1.62-.56 1.62-1.42v-.03c0-.92-.84-1.44-2.15-1.44h-.76l-.27-1.03 2.52-2.68h-4.05V.8h6.18v1.23l-2.6 2.67c1.42.19 2.75.89 2.75 2.63v.03c0 1.72-1.34 2.95-3.27 2.95-1.63 0-2.8-.68-3.58-1.64z" fill="#ECB21F"/>
		<path fill="#EEB211" d="M.38 21.97h213.08v138.64H.38z"/>
		<path d="M171.36 72.85h-6.46v-2.5h5.62v-2.33h-5.62V65.6h6.38v-2.33h-8.99v11.91h9.07v-2.33zM42.3 92.05h11.91v-1.52H42.3v1.52zm34.16 27.26h2.62V107.4h-2.62v11.91zm58.4-47.94h2.06l2.55 3.81h3.07l-2.91-4.25c1.52-.56 2.55-1.77 2.55-3.69v-.03c0-1.12-.36-2.06-1.02-2.72-.78-.78-1.96-1.21-3.47-1.21h-5.44v11.91h2.62v-3.82h-.01zm0-5.74h2.61c1.28 0 2.05.58 2.05 1.7v.03c0 1-.73 1.68-2 1.68h-2.66v-3.41zm-90.07 1.83l3.32 5.04h.07l3.35-5.09v7.78h2.6V63.28h-2.82l-3.13 5.04-3.13-5.04h-2.82v11.91h2.57v-7.73h-.01zm3.79 47.26h2.63v1.7c-.66.48-1.51.71-2.47.71-2.11 0-3.61-1.6-3.61-3.78v-.03c0-2.02 1.51-3.71 3.42-3.71 1.37 0 2.19.44 3.11 1.21l1.65-1.99c-1.24-1.05-2.54-1.63-4.68-1.63-3.61 0-6.24 2.77-6.24 6.16v.03c0 3.52 2.55 6.13 6.26 6.13 2.18 0 3.87-.85 5.09-1.89v-5.17h-5.17v2.26h.01zm23.6-22.67h11.91v-1.52H72.18v1.52zm95.2 20.13c-2.06-.53-2.57-.78-2.57-1.56v-.03c0-.58.53-1.04 1.53-1.04s2.04.44 3.1 1.18l1.36-1.97c-1.2-.97-2.69-1.52-4.42-1.52-2.43 0-4.17 1.43-4.17 3.59v.03c0 2.37 1.55 3.03 3.95 3.64 1.99.51 2.4.85 2.4 1.52v.03c0 .7-.65 1.12-1.72 1.12-1.36 0-2.48-.56-3.55-1.44l-1.55 1.85c1.43 1.28 3.25 1.91 5.05 1.91 2.57 0 4.37-1.33 4.37-3.69v-.03c0-2.09-1.36-2.96-3.78-3.59zm-32.08 2.3h5.62v-2.33h-5.62v-2.42h6.38v-2.33h-8.98v11.91h9.07v-2.33h-6.47v-2.5zm-4.21-22.43H143v-1.52h-11.91v1.52zm29.88-1.52v1.52h11.91v-1.52h-11.91zM77.79 63.07c-3.67 0-6.34 2.77-6.34 6.16v.03c0 3.39 2.64 6.13 6.31 6.13 3.68 0 6.35-2.77 6.35-6.16v-.03c-.01-3.4-2.65-6.13-6.32-6.13zm3.57 6.19c0 2.04-1.47 3.71-3.58 3.71-2.11 0-3.61-1.7-3.61-3.74v-.03c0-2.04 1.46-3.71 3.57-3.71s3.61 1.7 3.61 3.74v.03h.01zm26.03-6.19c-3.68 0-6.35 2.77-6.35 6.16v.03c0 3.39 2.64 6.13 6.32 6.13 3.67 0 6.35-2.77 6.35-6.16v-.03c-.01-3.4-2.65-6.13-6.32-6.13zm3.57 6.19c0 2.04-1.46 3.71-3.57 3.71s-3.61-1.7-3.61-3.74v-.03c0-2.04 1.46-3.71 3.57-3.71s3.6 1.7 3.6 3.74v.03h.01zm-4.81 38.14h-2.62v11.91h8.56v-2.38h-5.94v-9.53zm6.52-15.89l.07-.14-1.38-.64s-1.24 2.31-1.4 2.6c-.25-.25-2.22-2.27-2.44-2.5 1.77-.69 2.72-1.72 2.72-3.12 0-1.63-1.34-2.88-3.05-2.88-1.91 0-3.3 1.25-3.3 2.98 0 .91.34 1.66 1.13 2.62-1.82.77-2.82 1.95-2.82 3.48 0 2.06 1.64 3.52 3.9 3.52 1.45 0 2.72-.61 3.88-1.8.17.17 1.87 1.92 1.87 1.92l1.27-.97s-1.95-2-2.11-2.16c.54-.72 1.06-1.62 1.66-2.91zm-5.53-5.25c.88 0 1.53.63 1.53 1.5v.03c0 .93-.72 1.62-2.19 2.12-.72-.91-.99-1.4-.99-2.05 0-.94.69-1.6 1.65-1.6zM106.2 96c-1.35 0-2.33-.88-2.33-2.09 0-1.07.77-1.93 2.17-2.44 0 .12 2.58 2.79 2.9 3.13-.86.91-1.78 1.4-2.74 1.4zm66.66 11.06c.71 0 1.27.55 1.27 1.24 0 .7-.55 1.25-1.27 1.25-.71 0-1.28-.55-1.28-1.25-.01-.69.56-1.24 1.28-1.24zm-.01.25c-.55 0-.96.45-.96.99 0 .56.41.99.97.99.55.01.95-.44.95-.99 0-.54-.4-.99-.96-.99zm-.19 1.64h-.29v-1.24c.11-.02.27-.05.48-.05.24 0 .34.04.43.1.07.05.12.15.12.26 0 .14-.11.25-.26.3v.01c.12.04.19.14.23.3.04.19.06.27.09.3h-.31c-.04-.04-.06-.15-.1-.3-.02-.14-.1-.2-.26-.2h-.14v.52h.01zm.01-.7h.14c.16 0 .29-.05.29-.18 0-.11-.08-.19-.27-.19-.07 0-.13.01-.16.01v.36z" fill="#FFF"/>
	</g>
</svg>
