<svg width="15px" height="14px" viewBox="0 0 15 14" version="1.1" xmlns="http://www.w3.org/2000/svg" xmlns:xlink="http://www.w3.org/1999/xlink">
    <defs></defs>
    <g id="Homepage" stroke="none" stroke-width="1" fill="none" fill-rule="evenodd">
        <g id="Mobile---Homepage" transform="translate(-190.000000, -97.000000)" fill="#6E7070">
            <g id="Header" transform="translate(-4.000000, 20.000000)">
                <g id="NAV" transform="translate(0.000000, 55.000000)">
                    <g id="Sign-In" transform="translate(178.000000, 22.000000)">
                        <g id="Icon" transform="translate(16.000000, 0.000000)">
                            <path d="M14.4190429,13.5359992 C14.4915527,13.5359992 14.5387971,13.463268 14.5038773,13.4047421 C13.0976386,11.048174 10.3808823,9.45054888 7.25782441,9.45054888 C4.13476655,9.45054888 1.41780482,11.048174 0.0117714728,13.4047421 C-0.0233536846,13.463268 0.0243014997,13.5359992 0.0966059172,13.5359992 L14.4190429,13.5359992 Z" id="Fill-4"></path>
                            <path d="M11.2713893,4.16723702 C11.2713893,6.3836182 9.47454319,8.18046428 7.25816201,8.18046428 C5.04198409,8.18046428 3.24513801,6.3836182 3.24513801,4.16723702 C3.24513801,1.95085584 5.04198409,0.154009756 7.25816201,0.154009756 C9.47454319,0.154009756 11.2713893,1.95085584 11.2713893,4.16723702" id="Fill-1"></path>
                        </g>
                    </g>
                </g>
            </g>
        </g>
    </g>
</svg>