<svg width="51px" height="49px" viewBox="0 0 51 49" version="1.1" xmlns="http://www.w3.org/2000/svg" xmlns:xlink="http://www.w3.org/1999/xlink">
    <g id="Product-Catalog" stroke="none" stroke-width="1" fill="none" fill-rule="evenodd">
        <g id="Catalog---Desktop" transform="translate(-1027.000000, -1192.000000)" fill="#6E7070">
            <path d="M1070.18808,1234.64959 C1070.08888,1234.75537 1069.97581,1234.84971 1069.86567,1234.9462 C1069.65851,1235.1256 1069.42436,1235.3293 1069.20042,1235.59232 C1068.59206,1236.30991 1067.74226,1236.57008 1066.20824,1236.58294 C1064.36567,1236.53148 1062.27363,1236.02759 1059.81395,1235.04269 C1056.20832,1233.59964 1052.7194,1231.51333 1049.14586,1228.6644 C1043.65025,1224.28451 1039.34727,1219.57227 1035.99256,1214.25965 C1033.98951,1211.08909 1032.73487,1208.29662 1032.04336,1205.47128 C1031.73408,1204.20763 1031.45762,1202.71312 1031.75086,1201.2179 C1031.84714,1200.72759 1032.03315,1200.36736 1032.33514,1200.0829 C1032.69548,1199.74412 1033.05072,1199.40104 1033.40523,1199.05726 C1034.0931,1198.39184 1034.7423,1197.76359 1035.43016,1197.16893 C1035.69495,1196.9395 1036.1049,1196.71793 1036.64833,1196.51066 C1036.98898,1196.37915 1037.49011,1196.29552 1038.33991,1196.80942 C1039.06497,1197.24755 1039.72074,1197.86579 1040.53115,1198.87714 C1041.48599,1200.06932 1042.21762,1201.09782 1042.68082,1202.23925 C1043.08128,1203.22916 1042.94488,1204.02537 1042.23659,1204.82087 C1041.74932,1205.36693 1041.22777,1205.94086 1040.68069,1206.41544 C1039.62883,1207.32887 1038.54853,1208.94346 1039.37061,1211.44503 C1039.83964,1212.87021 1040.61577,1214.23392 1041.8157,1215.73558 C1045.28566,1220.08188 1049.17212,1223.8471 1053.36715,1226.92546 C1054.33949,1227.63947 1055.85163,1228.64296 1057.73359,1229.10325 C1059.50321,1229.53495 1061.07589,1229.09825 1062.28312,1227.83603 C1062.80102,1227.29497 1063.38822,1226.74463 1064.13225,1226.10637 C1064.8865,1225.45811 1065.6298,1225.33446 1066.54306,1225.71041 C1068.74087,1226.61312 1070.57104,1227.94681 1071.98324,1229.67432 C1072.83085,1230.71069 1072.84398,1231.50547 1072.03357,1232.60473 C1071.65426,1233.11934 1071.18669,1233.60679 1070.69067,1234.12211 C1070.52217,1234.29794 1070.35366,1234.47305 1070.18808,1234.64959 M1075.45903,1226.83969 C1073.56175,1224.55325 1071.15605,1222.80287 1068.30831,1221.63714 C1065.74943,1220.59005 1063.27443,1220.98673 1061.15102,1222.78357 C1060.37344,1223.44113 1059.65785,1224.11369 1059.02397,1224.78125 C1058.99552,1224.81127 1058.9751,1224.82771 1058.97218,1224.83271 C1058.95467,1224.84201 1058.8934,1224.83057 1058.78836,1224.80484 C1057.69857,1224.53753 1056.7306,1223.87854 1055.83193,1223.22599 C1052.7887,1221.01532 1050.13499,1218.34436 1047.93937,1216.02219 C1046.71099,1214.72423 1045.44613,1213.30763 1044.50807,1211.74021 C1044.14991,1211.14127 1043.87637,1210.45298 1043.63055,1209.78041 C1043.6393,1209.77041 1043.65098,1209.75969 1043.66411,1209.74682 C1044.32644,1209.13286 1044.99753,1208.44958 1045.65767,1207.71769 C1047.54766,1205.6228 1047.96708,1203.16984 1046.86782,1200.62395 C1045.68758,1197.89009 1043.91722,1195.5472 1041.60781,1193.6603 C1040.14163,1192.46312 1038.51716,1191.90634 1036.77598,1192.01284 C1035.22665,1192.10647 1033.76558,1192.70756 1032.55324,1193.7525 C1031.71438,1194.47438 1030.92148,1195.24272 1030.15557,1195.98533 C1029.80908,1196.32197 1029.46187,1196.65789 1029.11101,1196.99024 C1028.29476,1197.76287 1027.75935,1198.657 1027.52082,1199.6462 C1027.36764,1200.2816 1027.26479,1200.90842 1027.16558,1201.51594 C1027.12473,1201.76395 1027.08389,1202.01125 1027.04012,1202.25641 L1027,1202.48298 L1027.03428,1202.71026 C1027.0868,1203.06263 1027.13276,1203.40999 1027.17798,1203.75377 C1027.27865,1204.51925 1027.38296,1205.30975 1027.55729,1206.09524 C1028.27069,1209.31441 1029.62162,1212.4721 1031.80848,1216.03434 C1035.45205,1221.96949 1040.17081,1227.20635 1046.2332,1232.04295 C1050.27358,1235.26569 1054.24758,1237.61645 1058.38352,1239.2296 C1060.51495,1240.06084 1063.33789,1241 1066.47157,1241 C1066.59996,1241 1066.72907,1240.99857 1066.85891,1240.995 C1069.21938,1240.93567 1071.02037,1240.19592 1072.36328,1238.73286 C1072.49968,1238.58348 1072.65505,1238.44983 1072.80751,1238.31474 C1073.01686,1238.12963 1073.22548,1237.94237 1073.41659,1237.7401 C1073.58874,1237.55784 1073.76308,1237.37773 1073.93814,1237.1969 C1074.52316,1236.59438 1075.12859,1235.9697 1075.66109,1235.25425 C1077.70061,1232.51968 1077.62693,1229.45276 1075.45903,1226.83969" id="Fill-1"></path>
        </g>
    </g>
</svg>
