<svg width="88px" height="49px" viewBox="0 0 88 49" version="1.1" xmlns="http://www.w3.org/2000/svg" xmlns:xlink="http://www.w3.org/1999/xlink">
    <defs>
        <polygon id="path-1" points="0 0.746485475 44.420687 0.746485475 44.420687 15.7408 0 15.7408"></polygon>
    </defs>
    <g id="Product-Catalog" stroke="none" stroke-width="1" fill="none" fill-rule="evenodd">
        <g id="Catalog---Desktop" transform="translate(-372.000000, -1194.000000)">
            <g id="Value-Adds" transform="translate(245.000000, 1190.000000)">
                <g id="Shipping" transform="translate(0.000000, 4.000000)">
                    <g id="Page-1" transform="translate(127.000000, 0.000000)">
                        <path d="M33.9685244,38.6571626 C33.9816963,38.6571626 33.9948682,38.6579606 34.0080401,38.6579606 C35.4166561,38.6795065 36.6114229,39.9243817 36.6168466,41.374342 C36.6199459,42.0861552 36.3534091,42.7540785 35.8675992,43.2560186 C35.3531212,43.7858885 34.6526873,44.0771573 33.8925924,44.0771573 L33.8848443,44.0771573 L33.8840695,44.0771573 C33.2061052,44.0755613 32.5676565,43.7986564 32.0880452,43.2975144 C31.5944872,42.7828064 31.3271756,42.0981251 31.334149,41.36716 C31.3411223,40.6425788 31.6309036,39.9570995 32.1500305,39.4368056 C32.6521115,38.9332695 33.2959839,38.6571626 33.9685244,38.6571626 M73.1936006,44.176109 L73.1889517,44.176109 C71.7570911,44.174513 70.5878933,42.9727297 70.5816948,41.4980315 C70.5785955,40.7590864 70.8459071,40.0744051 71.3340414,39.570071 C71.8221757,39.064939 72.4877429,38.7864381 73.2059976,38.7864381 L73.2083221,38.7864381 C74.6874464,38.7880341 75.807056,39.9283716 75.8140294,41.4389797 C75.8179034,42.1699448 75.541294,42.8594141 75.0368886,43.3805061 C74.5402313,43.8936181 73.8862864,44.176109 73.1936006,44.176109 M82.5665536,34.4142133 L82.565004,38.3922277 L79.9391514,38.3922277 C79.0008489,36.275142 77.448117,34.8690715 75.3173721,34.2083301 C71.8779625,33.1461963 68.1371493,34.8602935 66.6045626,38.1959204 C66.4705194,38.4887853 66.4604468,38.4903813 66.1745395,38.4672394 C65.9436443,38.4488855 65.7111994,38.4440975 65.4826286,38.4440975 C65.3950743,38.4440975 65.3075201,38.4448955 65.2207407,38.4456935 L65.2207407,11.7838202 L73.5314205,11.7838202 C78.3089379,11.7878102 81.4066536,14.4603017 82.2543026,19.3089306 C82.4433578,20.3886204 82.5425343,21.4507542 82.547958,22.4618163 C82.5719773,26.4454166 82.5696528,30.429017 82.5665536,34.4142133 M87.2038293,22.7259532 C87.1898826,21.1626774 87.0325948,19.5938155 86.7350654,18.0624595 C85.4194273,11.316194 80.4288354,7.12032653 73.7096282,7.11314456 L65.2757526,7.11234656 L65.2780771,5.65759827 C65.2811763,4.63456629 65.2842756,3.61073631 65.2687793,2.58770433 C65.2439851,0.967770698 64.2940603,0.000598497649 62.7258321,0.000598497649 C48.7830125,-0.000199499216 34.8401928,-0.000199499216 20.8965983,0.000598497649 C19.3128738,0.000598497649 18.3652734,0.966972701 18.3621742,2.58610834 C18.3590749,4.26668974 18.3598497,5.94806913 18.3598497,7.62785253 L18.3606245,9.72818028 L16.1593714,9.72738229 C14.2378269,9.72738229 12.3155076,9.72498829 10.3947379,9.73217027 C9.2813269,9.73536225 8.34999768,10.4447815 8.07648752,11.4989353 C7.80297736,12.5490992 8.28336348,13.6846487 9.19222302,14.138709 C9.63154387,14.3589561 10.1839879,14.4818476 10.7465046,14.4850396 C13.8969077,14.5065855 17.0480857,14.5009995 20.1984888,14.4954136 C22.0975636,14.4922216 22.9839535,13.5641512 22.9878276,11.574745 L22.9909268,4.85720742 C22.9909268,4.84204548 22.9909268,4.82608554 22.9917017,4.8117216 L60.5950872,4.8117216 L60.5950872,38.4560674 L56.1786342,38.4552694 C51.1717712,38.4520774 46.1649081,38.4512794 41.1588199,38.4744214 C40.7845836,38.4752193 40.7853584,38.4752193 40.65209,38.1767685 C39.7277341,36.1019767 37.965027,34.5937626 35.8164614,34.0399528 C33.6516246,33.483749 31.3907105,33.9617491 29.608633,35.3566476 C28.5982725,36.1482605 27.8095095,37.1760805 27.3035545,38.3515298 L22.9893772,38.3515298 L22.990152,36.7635161 C22.9909268,34.9488712 22.9917017,33.1876921 22.9870528,31.425715 C22.981629,29.5775543 22.0371279,28.6000081 20.2566,28.5984121 C18.3118111,28.5968162 16.3677969,28.5960182 14.4214584,28.5968162 L11.6855819,28.5928262 C11.2307648,28.5864422 10.7751728,28.5832502 10.3211304,28.6055941 C8.99154559,28.6750198 7.9997807,29.7187997 8.01527703,31.0331006 C8.02999854,32.3250575 9.0442331,33.3401095 10.3753675,33.3935753 C10.5442775,33.4007573 10.7147371,33.3991613 10.8844219,33.3975653 L18.3606245,33.3967673 L18.3598497,35.5856727 C18.3590749,37.2399202 18.3590749,38.8933697 18.3621742,40.5468192 C18.3660482,42.126055 19.315973,43.1123791 20.8415864,43.1227531 C22.1394037,43.1307331 23.437221,43.1291371 24.7358132,43.1283391 L26.9758072,43.1267431 C28.1953681,46.6155854 30.4624806,48.6369114 33.405233,48.8388046 C35.1268748,48.9577062 36.5672584,48.6289315 37.8178119,47.8389146 C39.4604225,46.8007206 40.5583372,45.2805366 41.0875368,43.3134743 L66.0637408,43.3134743 C67.1601059,46.9802699 69.5752084,48.9417462 73.0797026,48.998404 C73.1323901,48.999202 73.1843028,49 73.2369903,49 C76.7577556,48.999202 79.1449647,47.0800195 80.3412811,43.2895344 L84.4989455,43.2895344 C86.3321609,43.2887364 87.2239745,42.372636 87.2247493,40.4901614 L87.2293982,35.8370417 C87.2355967,31.5406266 87.2417952,27.098178 87.2038293,22.7259532" id="Fill-1" fill="#6E7070"></path>
                        <g id="Group-5" transform="translate(0.000000, 12.000000)">
                            <mask id="mask-2" fill="white">
                                <use xlink:href="#path-1"></use>
                            </mask>
                            <g id="Clip-4"></g>
                            <path d="M35.357175,11.7476571 C34.337925,12.7792762 34.270425,14.0295619 35.179425,15.0108952 C35.603925,15.4703238 36.162675,15.7293714 36.752175,15.7408 L36.793425,15.7408 C37.407675,15.7408 38.013675,15.4733714 38.502675,14.9827048 C39.910425,13.573181 41.761425,11.7103238 43.588425,9.81318095 C44.705925,8.6528 44.698425,7.57241905 43.563675,6.41127619 C41.978925,4.78841905 40.385175,3.17470476 38.791425,1.56099048 C37.775175,0.531657143 36.488925,0.472990476 35.516175,1.41318095 C35.063175,1.84975238 34.819425,2.38384762 34.811175,2.9575619 C34.802175,3.58918095 35.081175,4.21394286 35.618925,4.7640381 C35.957925,5.11146667 36.303675,5.4535619 36.650925,5.79413333 L2.846175,5.79413333 L2.671425,5.79260952 C2.491425,5.78727619 2.311425,5.7880381 2.133675,5.80175238 C0.952425,5.89851429 0.015675,6.91641905 -7.5e-05,8.11946667 C-0.014325,9.32860952 0.932925,10.3388952 2.157675,10.420419 C2.373675,10.4341333 2.589675,10.4303238 2.805675,10.4310857 L36.677925,10.4303238 C36.235425,10.8676571 35.794425,11.3057524 35.357175,11.7476571" id="Fill-3" fill="#6E7070" mask="url(#mask-2)"></path>
                        </g>
                    </g>
                </g>
            </g>
        </g>
    </g>
</svg>
