<?xml version="1.0" encoding="UTF-8"?>
<svg version="1.1" viewBox="0 0 24 24" xmlns="http://www.w3.org/2000/svg" xmlns:xlink="http://www.w3.org/1999/xlink">
    <!--Generated by IJSVG (https://github.com/curthard89/IJSVG)-->
    <g fill="none" stroke="#9e9e9e" stroke-linejoin="round" stroke-width="1">
        <path d="M2.146,7.5c0.234,0 0.462,0.025 0.683,0.069l1.464,-7.356c-0.696,-0.138 -1.413,-0.213 -2.147,-0.213c-0.734,0 -1.451,0.075 -2.146,0.213l1.464,7.356c0.22,-0.044 0.448,-0.069 0.682,-0.069Z" transform="translate(10.354, 0.5)"></path>
        <path d="M6.671,6.671c0.165,-0.165 0.344,-0.309 0.531,-0.434l-4.167,-6.237c-0.588,0.395 -1.148,0.849 -1.667,1.369c-0.519,0.52 -0.974,1.079 -1.368,1.668l6.237,4.166c0.125,-0.187 0.268,-0.366 0.434,-0.532Z" transform="translate(3.354, 2.354)"></path>
        <path d="M7.5,2.147c0,-0.234 0.024,-0.462 0.068,-0.684l-7.357,-1.463c-0.136,0.696 -0.211,1.413 -0.211,2.147c0,0.734 0.074,1.451 0.213,2.146l7.356,-1.464c-0.045,-0.22 -0.069,-0.448 -0.069,-0.682Z" transform="translate(1.5, 9.354)"></path>
        <path d="M6.672,0.531c-0.166,-0.165 -0.31,-0.344 -0.436,-0.531l-6.236,4.168c0.396,0.588 0.85,1.147 1.368,1.667c0.52,0.52 1.079,0.974 1.669,1.366l4.166,-6.237c-0.187,-0.124 -0.365,-0.267 -0.531,-0.433Z" transform="translate(3.353, 13.445)"></path>
        <path d="M2.147,0.07c-0.234,0 -0.462,-0.024 -0.684,-0.068l-1.463,7.356c0.695,0.137 1.413,0.212 2.146,0.212c0.734,0 1.451,-0.075 2.146,-0.214l-1.465,-7.356c-0.218,0.046 -0.445,0.07 -0.68,0.07Z" transform="translate(10.353, 14.931)"></path>
        <path d="M0.531,0.531c-0.165,0.166 -0.344,0.31 -0.531,0.436l4.168,6.236c0.588,-0.396 1.148,-0.85 1.667,-1.368c0.521,-0.52 0.974,-1.079 1.366,-1.669l-6.236,-4.166c-0.125,0.187 -0.267,0.365 -0.434,0.531Z" transform="translate(14.444, 13.445)"></path>
        <path d="M0.068,2.145c0,0.233 -0.024,0.462 -0.068,0.684l7.357,1.463c0.137,-0.695 0.211,-1.413 0.211,-2.146c0.002,-0.735 -0.074,-1.451 -0.213,-2.146l-7.355,1.464c0.044,0.219 0.068,0.446 0.068,0.681Z" transform="translate(15.932, 9.356)"></path>
        <path d="M0.531,6.671c0.165,0.165 0.309,0.344 0.435,0.531l6.236,-4.168c-0.395,-0.588 -0.85,-1.148 -1.368,-1.667c-0.519,-0.521 -1.079,-0.974 -1.669,-1.367l-4.165,6.236c0.186,0.126 0.364,0.268 0.531,0.435Z" transform="translate(14.445, 2.355)"></path>
    </g>
    <path fill="none" d="M0,0h24v24h-24Z"></path>
</svg>